<svg width="40" height="40" viewBox="0 0 40 40" fill="none" xmlns="http://www.w3.org/2000/svg">
<path d="M30.983 9.78159C31.2129 9.91693 31.2954 10.2499 31.7139 10.2751C32.1095 10.2868 32.9778 11.4933 32.8119 11.9329C32.6182 12.5772 32.8751 13.4553 31.9917 13.8516C31.6697 13.978 31.5589 14.4815 31.1541 14.5908C30.9333 14.6504 30.7308 14.7839 30.4595 14.719C29.5536 14.47 28.5183 14.9665 27.6403 14.3547C27.6173 14.3412 27.5437 14.361 27.5069 14.371C26.5636 14.9216 25.6396 14.2827 24.7058 14.3966C23.6755 14.5167 22.6363 14.126 21.6102 14.6595C21.2835 14.8463 20.8191 14.6361 20.4374 14.601C19.0393 14.5046 17.6684 14.835 16.2931 14.91C15.617 14.9543 14.895 14.8136 14.2277 15.2108C14.0759 15.311 13.8459 15.3336 13.6573 15.2858C12.6272 15.09 11.5921 15.4286 10.585 15.2464C9.7204 15.0849 8.84202 14.947 7.99591 14.7016C7.4671 14.5482 7.20067 14.1069 7.54608 13.5203C7.67043 13.3091 7.58777 13.134 7.39459 13.1467C7.068 13.1756 6.90709 13.0809 7.07289 12.7993C7.23869 12.5177 7.01835 11.9456 7.60708 11.9446C7.78645 11.9554 7.92437 12.0366 7.9476 11.7343C7.9619 11.0791 8.49548 11.0141 8.94164 10.9924C9.19462 10.9833 9.47522 10.9273 9.70056 10.9652C11.3101 11.2809 12.6953 10.2953 14.2776 10.1841C15.1101 10.1371 15.9888 9.9592 16.7708 9.78765C17.4792 9.63596 18.307 9.80734 19.0524 9.32986C19.4942 9.05276 20.3817 9.22774 21.0533 9.24391C21.8075 9.27722 22.5803 9.22659 23.3255 9.06497C23.8499 8.96293 24.3466 9.06575 24.8617 9.08464C25.4964 9.11075 26.1494 9.21086 26.8209 9.22703C28.2237 9.26298 29.6174 9.26192 30.983 9.78159Z" fill="#F74C47"/>
<path d="M17.9071 33.1459C17.4475 32.7172 16.689 32.2706 15.8841 32.2707C15.0792 32.2708 14.431 31.7943 13.6261 31.7944C13.1708 31.7791 12.642 31.6258 12.2559 31.3352C11.3457 30.6729 10.2697 30.2922 9.249 29.8176C8.29725 29.3836 7.53429 28.6816 6.71606 28.0734C6.23799 27.7287 6.22465 27.1205 6.14224 26.6296C6.08734 26.2496 6.69477 25.8489 6.88795 25.8362C8.45642 25.7485 10.0297 25.4424 11.5885 25.9494C12.3978 26.2047 13.3361 26.1884 14.1086 26.4536C14.9179 26.7089 15.9023 26.5617 16.5458 27.0986C17.0881 27.5444 17.6955 27.3016 18.2288 27.5524C18.7851 27.8167 19.3829 28.0107 20.0589 28.1243C21.4478 28.3417 22.8595 28.7305 24.1054 29.4009C24.6939 29.7158 25.3516 29.7554 25.8527 30.1136C26.6387 30.6713 27.6551 30.8904 28.2385 31.7396C28.6061 32.272 28.67 32.8469 28.4718 33.3938C28.2921 33.8568 28.3697 34.5661 27.5602 34.6266C27.2704 34.6456 27.4448 35.1907 27.0997 35.3035C26.5707 35.466 26.0278 35.652 25.5496 35.4653C24.3955 35.0069 23.1677 34.7264 22.0458 34.1607C21.3976 33.8422 20.5652 33.7313 19.8201 33.7349C19.1945 33.7458 18.6565 33.5555 17.9071 33.1459Z" fill="#F74C47"/>
</svg>
