<svg width="31" height="30" viewBox="0 0 31 30" fill="none" xmlns="http://www.w3.org/2000/svg">
<path d="M20.4756 0.827167C20.7421 0.838609 20.9715 1.09374 21.3527 0.919322C21.7074 0.743757 23.0409 1.40066 23.101 1.86658C23.2328 2.52639 23.8722 3.18072 23.2787 3.94566C23.0538 4.20856 23.1927 4.70514 22.8867 4.99181C22.7198 5.14818 22.6038 5.36124 22.3338 5.43141C21.4172 5.63736 20.7367 6.5621 19.6742 6.43472C19.6475 6.43357 19.5919 6.48571 19.5641 6.51177C18.9902 7.44109 17.8743 7.31143 17.1036 7.85071C16.2506 8.44098 15.1497 8.5845 14.4947 9.53759C14.2941 9.85605 13.7854 9.88872 13.432 10.0371C12.1525 10.609 11.0977 11.545 9.91905 12.2575C9.34303 12.6144 8.63961 12.8295 8.2373 13.4936C8.15034 13.6534 7.95794 13.7814 7.76905 13.8278C6.76779 14.1392 6.01318 14.9244 5.03857 15.2369C4.19956 15.5007 3.35938 15.7917 2.49721 15.9728C1.95836 16.0859 1.5158 15.8216 1.545 15.1415C1.55552 14.8966 1.40028 14.7809 1.23571 14.8829C0.961023 15.0619 0.774464 15.0539 0.78848 14.7274C0.802496 14.4009 0.339145 13.9995 0.858356 13.7219C1.02176 13.6472 1.18166 13.654 1.06008 13.3763C0.764802 12.7912 1.20524 12.4831 1.58886 12.2542C1.80791 12.1274 2.02928 11.9461 2.24599 11.8736C3.81509 11.3958 4.57458 9.87487 5.91901 9.03314C6.63178 8.60039 7.32376 8.03046 7.93343 7.51152C8.48747 7.0447 9.29867 6.80698 9.7323 6.03518C9.99201 5.58298 10.8577 5.32033 11.458 5.01903C12.1395 4.69396 12.7978 4.28611 13.3796 3.79323C13.7946 3.45672 14.2813 3.31407 14.7449 3.08866C15.3174 2.81343 15.9408 2.59491 16.5412 2.29361C17.7963 1.6661 19.026 1.01023 20.4756 0.827167Z" fill="white"/>
<path d="M19.9137 27.5955C19.3066 27.4332 18.4271 27.3954 17.7166 27.7738C17.0062 28.1521 16.2102 28.0362 15.4997 28.4145C15.0906 28.615 14.5518 28.7281 14.0744 28.6531C12.9598 28.4962 11.8311 28.6658 10.7071 28.7266C9.66304 28.7908 8.65966 28.5297 7.6516 28.3774C7.06762 28.2978 6.77 27.7672 6.46654 27.3725C6.23953 27.063 6.58738 26.4238 6.75195 26.3218C8.09521 25.5073 9.34005 24.4978 10.9543 24.2127C11.7886 24.0578 12.6092 23.6024 13.4157 23.4735C14.25 23.3185 15.0498 22.726 15.8701 22.8975C16.5583 23.036 16.9803 22.5363 17.569 22.507C18.1843 22.4789 18.8031 22.3692 19.4532 22.1518C20.7813 21.691 22.2101 21.3708 23.6249 21.377C24.2924 21.3784 24.8915 21.1043 25.5022 21.185C26.4581 21.3078 27.4582 21.0237 28.3723 21.499C28.9469 21.7963 29.2735 22.2736 29.3556 22.8495C29.4145 23.3427 29.8164 23.9323 29.1303 24.3662C28.8834 24.5191 29.2934 24.9183 29.0419 25.1801C28.6513 25.5721 28.2595 25.9914 27.7496 26.0513C26.5155 26.1891 25.2999 26.5185 24.0438 26.5463C23.3219 26.5698 22.535 26.8631 21.879 27.2166C21.332 27.5201 20.7677 27.6049 19.9137 27.5955Z" fill="white"/>
</svg>
