<svg width="1229" height="1130" viewBox="0 0 1229 1130" fill="none" xmlns="http://www.w3.org/2000/svg">
<circle cx="492" cy="393" r="737" fill="#FBEADF"/>
<circle opacity="0.3" cx="455" cy="368" r="698" stroke="white" stroke-width="4"/>
<ellipse cx="430" cy="338.5" rx="654" ry="653.5" fill="#B9DCF2"/>
<circle cx="502.5" cy="223.5" r="23" stroke="white" stroke-width="9"/>
<circle opacity="0.2" cx="191" cy="345" r="43" fill="#FFFFFD" stroke="white" stroke-width="6"/>
<circle opacity="0.4" cx="135" cy="921" r="22" stroke="#FEFFFC" stroke-width="8"/>
<path opacity="0.2" d="M341.151 1.99078L341.142 1.99963L341.133 2.00858L246.349 96.8254L237.014 106.163L225.525 117.656L183.16 160.037C155.219 187.988 110.53 187.988 82.5885 160.037L26.58 104.009L20.1174 97.5438L15.8091 93.2339L14.3946 94.6479L15.8091 93.2339L12.9368 90.3607L-72.5121 4.88181C-75.2704 2.12253 -77.3463 -0.641907 -79.5069 -3.52371C-81.6204 -6.34274 -82.9812 -8.39194 -84.3445 -11.1195L-84.4002 -11.2309L-84.4692 -11.3345C-85.3737 -12.6917 -85.8951 -13.8992 -86.4056 -15.0816C-86.6555 -15.6604 -86.9028 -16.2332 -87.1912 -16.8145C-98.3459 -42.6738 -93.4285 -74.8031 -72.5121 -95.7269L-0.706253 -167.558L12.2188 -180.487L13.6549 -181.924L54.5842 -222.868L84.7426 -253.037C93.1074 -261.404 102.872 -266.996 113.373 -270.502C120.401 -272.608 128.093 -274 135.746 -274C144.146 -274 152.53 -272.599 160.195 -269.811C167.816 -267.038 174.784 -262.874 181.806 -257.265C182.597 -256.487 183.38 -255.899 184.059 -255.39L184.092 -255.365C184.819 -254.82 185.428 -254.359 186.032 -253.755L248.503 -191.262L252.094 -187.671L287.278 -152.473L297.331 -142.417L305.948 -133.797L340.415 -99.3184C369.097 -70.6258 369.045 -25.2161 341.151 1.99078Z" stroke="#F8F9F8" stroke-width="4"/>
<circle cx="1021.5" cy="182.5" r="5.5" fill="#FEFEFC"/>
<circle cx="778" cy="213" r="8" fill="#F7F9F8"/>
<path opacity="0.3" d="M-95 695.266C-47.937 673.382 57.5 636.042 166 685.266C328.524 759.001 390.5 867.042 574 867.042C723.933 867.042 757 622.542 927 695.266" stroke="white" stroke-width="4" stroke-linecap="round" stroke-linejoin="round" stroke-dasharray="8.8 8.8"/>
</svg>
