<svg width="88" height="85" viewBox="0 0 88 85" fill="none" xmlns="http://www.w3.org/2000/svg">
<path fill-rule="evenodd" clip-rule="evenodd" d="M51.8153 49.8119C51.6286 49.6509 51.4019 49.5348 51.1472 49.484C50.4229 49.3411 49.7675 49.7968 49.6856 50.5021C49.1273 55.2894 48.9534 59.8008 51.2368 65.7052C39.2491 49.8447 31.7805 2.27426 31.7005 1.76076C31.6474 1.41631 31.466 1.11355 31.2132 0.895613C30.9334 0.654363 30.5674 0.517208 30.1869 0.544209C29.463 0.594959 28.9659 1.21998 29.0773 1.94271C29.3845 3.93037 35.8056 44.8037 46.8744 63.6572C42.6382 61.2711 38.4721 60.6814 33.8865 61.5967C33.1865 61.7377 32.7838 62.4229 32.988 63.13C33.1917 63.835 33.924 64.2959 34.625 64.1558C41.7308 62.7361 48.3359 64.7841 59.3048 79.361C59.3058 79.3618 59.3069 79.3633 59.3077 79.3645C59.3083 79.3653 59.3091 79.3664 59.3091 79.3664C59.7661 79.9705 60.5917 80.1345 61.1637 79.7392C61.7361 79.3443 61.8325 78.5357 61.3804 77.9342C61.3784 77.9317 61.3764 77.9291 61.3748 77.9269L61.3744 77.9266C61.3724 77.924 61.3708 77.9217 61.3684 77.9189C51.5677 64.8868 51.4319 58.5492 52.3106 51.0215C52.3642 50.563 52.1626 50.1113 51.8153 49.8119Z" fill="#F74C47"/>
</svg>
