<svg width="62" height="15" viewBox="0 0 62 15" fill="none" xmlns="http://www.w3.org/2000/svg">
<path d="M61.5985 8.06006C61.6321 8.02703 61.6321 7.99399 61.6321 7.96096C61.6656 7.92793 61.6992 7.86186 61.6992 7.82883C61.6992 7.7958 61.7328 7.76276 61.7328 7.6967C61.7328 7.66366 61.7664 7.5976 61.7664 7.56456C61.7664 7.4985 61.8 7.43243 61.8 7.36637C61.8 7.33333 61.8 7.33333 61.8 7.3003C61.8 7.26727 61.8 7.26727 61.8 7.23423C61.8 7.16817 61.8 7.1021 61.7664 7.03604C61.7664 6.96997 61.7328 6.93694 61.7328 6.9039C61.7328 6.87087 61.6992 6.83784 61.6992 6.8048C61.6656 6.73874 61.6321 6.70571 61.5985 6.63964C61.5985 6.60661 61.5649 6.60661 61.5649 6.57357C61.4977 6.50751 61.4641 6.44144 61.3969 6.37538L55.3176 0.396396C54.7802 -0.132132 53.9405 -0.132132 53.4031 0.396396C52.8656 0.924925 52.8656 1.75075 53.4031 2.27928L57.1985 6.01201C57.1985 6.01201 58.0111 6.94192 58.0111 7.43243C58.0111 7.92295 57.1985 8.65465 57.1985 8.65465L53.4031 12.3874C52.8656 12.9159 52.8656 13.7417 53.4031 14.2703C53.6718 14.5345 54.0076 14.6667 54.3435 14.6667C54.6794 14.6667 55.0153 14.5345 55.284 14.2703L61.3969 8.25826C61.4641 8.19219 61.5313 8.12613 61.5985 8.06006Z" fill="white"/>
<path d="M0.201575 8.06006C0.167988 8.02703 0.167988 7.99399 0.167988 7.96096C0.1344 7.92793 0.100812 7.86186 0.100812 7.82883C0.100812 7.7958 0.0672245 7.76276 0.0672245 7.6967C0.0672245 7.66366 0.033637 7.5976 0.033637 7.56456C0.033637 7.4985 4.86374e-05 7.43243 4.86374e-05 7.36637C4.86374e-05 7.33333 4.86374e-05 7.33333 4.86374e-05 7.3003C4.86374e-05 7.26727 4.86374e-05 7.26727 4.86374e-05 7.23423C4.86374e-05 7.16817 4.95911e-05 7.1021 0.033637 7.03604C0.033637 6.96997 0.0672245 6.93694 0.0672245 6.9039C0.0672245 6.87087 0.100812 6.83784 0.100812 6.8048C0.134399 6.73874 0.167988 6.70571 0.201575 6.63964C0.201575 6.60661 0.235164 6.60661 0.235164 6.57357C0.30234 6.50751 0.335926 6.44144 0.403102 6.37538L6.48249 0.396396C7.0199 -0.132132 7.85959 -0.132132 8.397 0.396396C8.9344 0.924925 8.9344 1.75075 8.397 2.27928L4.60158 6.01201C4.60158 6.01201 3.78898 6.94192 3.78898 7.43243C3.78898 7.92295 4.60158 8.65465 4.60158 8.65465L8.397 12.3874C8.9344 12.9159 8.9344 13.7417 8.397 14.2703C8.12829 14.5345 7.79242 14.6667 7.45654 14.6667C7.12066 14.6667 6.78478 14.5345 6.51608 14.2703L0.403102 8.25826C0.335926 8.19219 0.268751 8.12613 0.201575 8.06006Z" fill="white"/>
</svg>
