<svg width="105" height="139" viewBox="0 0 105 139" fill="none" xmlns="http://www.w3.org/2000/svg">
<path d="M33.4749 74.1567C34.3098 76.3676 35.7851 78.1227 37.1813 79.9717C43.2794 87.8636 51.1877 93.2996 60.1521 97.4425C66.143 100.238 72.2908 102.428 78.5749 104.379C79.1305 104.558 79.7364 104.715 80.1774 105.182C80.6402 105.7 80.7856 106.175 79.8485 106.221C79.6252 106.258 79.293 106.042 79.3663 106.489C79.5288 107.974 78.4188 108.034 77.4531 108.152C75.6443 108.395 73.8769 107.902 72.1529 107.51C67.2915 106.499 62.415 105.316 57.8182 103.533C53.5101 101.865 49.4816 99.5975 45.5607 97.1642C43.0406 95.621 40.5206 94.0778 38.6834 91.7614C37.4899 90.2435 35.8221 89.2892 34.5999 87.8434C32.2999 85.0093 30 82.1751 28.4126 78.9137C27.0645 76.2067 26.4874 73.3463 26.8256 70.3898C26.931 69.3875 26.655 68.6097 25.954 67.9555C24.111 66.1798 22.347 64.3102 20.6049 62.491C17.7493 59.4781 15.4116 56.0024 13.2469 52.5119C9.75005 46.9055 6.88671 40.9658 5.45647 34.4671C4.63887 30.6342 4.06641 26.815 5.58451 22.9903C5.98552 21.98 6.52397 21.1495 7.58246 20.6925C8.03609 20.4967 8.45424 20.4956 8.80129 20.884C9.22052 21.301 8.88945 21.5037 8.64542 21.908C7.04494 24.5724 7.87404 27.324 8.45804 30.0618C10.028 37.5765 13.6427 44.1485 17.7615 50.503C20.9319 55.3534 24.541 59.8349 28.6898 63.904C29.0151 64.242 29.2327 64.7461 29.8582 64.1172C31.9283 61.8481 34.6364 60.9181 37.5987 60.7156C42.1395 60.4296 46.3664 61.3555 49.4258 65.1176C51.0603 67.1029 50.9788 68.9919 49.6292 71.1293C46.1189 76.7111 39.9709 77.1528 35.0477 74.6139C34.5929 74.3917 34.1886 74.1476 33.7339 73.9254C33.7052 73.9975 33.5757 74.1132 33.4749 74.1567ZM45.0013 71.2137C46.3118 70.6479 45.8124 69.9067 45.3634 69.1438C43.8286 66.6968 41.225 66.2063 38.7152 65.7949C36.9122 65.4969 34.9511 65.3868 33.1147 66.1198C32.4091 66.4244 31.9703 66.7933 32.8157 67.5047C35.2211 69.3365 37.7698 70.8076 40.7629 71.3692C42.22 71.6969 43.6473 71.6786 45.0013 71.2137ZM38.2876 83.9192C36.0953 80.9189 33.7736 78.0343 31.9124 74.8313C33.1332 78.4902 35.6566 81.2877 38.2876 83.9192ZM28.4263 65.0942C26.2213 62.7572 23.9946 60.3698 21.7897 58.0328C23.628 60.7673 25.833 63.1043 28.4263 65.0942Z" fill="#B9DCF2"/>
<path d="M85.2748 115.099C88.1696 113.909 91.1812 113.266 94.1493 112.523C94.5743 112.4 95.1585 112.506 95.3441 111.828C95.4793 111.172 94.9524 110.921 94.548 110.677C92.5332 109.334 91.0144 107.478 89.2871 105.832C88.1886 104.811 86.9103 103.928 85.8187 102.785C84.1704 101.044 82.3423 99.4417 80.5864 97.8676C79.6975 97.0554 79.1753 95.8457 77.9485 95.3587C76.7217 94.8718 76.5602 93.8054 77.565 92.1158C78.0817 91.2349 78.9523 90.6198 80.0497 91.2224C80.9305 91.7391 81.8332 92.3063 82.6063 92.989C87.8375 97.4879 93.0183 102.008 98.2278 106.457C99.3766 107.456 100.626 108.411 101.854 109.316C104.094 111.041 104.154 112.151 102.358 114.361C101.007 116.081 99.2648 116.893 97.0883 117.115C92.9369 117.472 88.7787 117.951 84.7303 119.101C83.9308 119.327 83.1243 119.675 82.3465 119.951C81.3957 120.242 81.02 119.926 81.1976 118.952C81.6171 116.738 81.955 116.412 85.2748 115.099ZM94.1717 104.68C96.1819 106.981 98.4291 109.001 101.122 110.529C98.7957 108.604 96.4981 106.606 94.1717 104.68Z" fill="#B9DCF2"/>
</svg>
