<svg width="44" height="61" viewBox="0 0 44 61" fill="none" xmlns="http://www.w3.org/2000/svg">
<path d="M31.4562 13.021C30.9075 14.7961 28.7256 14.6634 27.909 13.7095C27.3423 13.0673 26.6008 12.617 25.9482 12.0229C24.4125 10.6251 22.5846 9.57906 21.2299 7.9669C20.7079 7.33728 20.0111 6.89962 19.3338 6.56394C18.1964 5.97793 17.5454 4.95011 16.7323 4.06956C16.4538 3.77394 16.1816 3.45598 16.0716 2.99075C15.9483 2.40119 16.3046 1.22313 16.7915 0.950349C16.9061 0.886164 17.0814 0.863225 17.2218 0.878679C17.863 0.914702 18.5775 0.947281 19.1018 1.3122C19.6198 1.69946 20.1727 2.04833 20.6907 2.4356C21.3525 2.91165 21.8207 3.64671 22.6252 3.87351C22.9157 3.95541 23.1174 4.18113 23.2297 4.38165C23.7461 5.20265 24.6308 5.57268 25.2485 6.20516C25.8725 6.81529 26.7125 7.17273 27.1968 7.93643C27.3956 8.25784 27.8299 8.42853 28.1434 8.68576C28.3961 8.90173 28.6963 9.03463 28.8539 9.41677C28.9376 9.63334 29.416 9.64761 29.7037 9.8252C30.7104 10.4467 31.2113 11.4081 31.4991 12.5265C31.5793 12.6697 31.5736 12.8611 31.4562 13.021Z" fill="#F74C47"/>
<path d="M6.2218 33.4787C5.65399 33.4392 5.48033 33.0284 5.67278 32.4314C5.98208 31.5054 7.15253 30.6052 8.18272 30.6303C8.68979 30.6285 9.10689 30.4325 9.59161 30.4244C9.92966 30.4232 10.3049 30.119 10.5966 30.5389C10.6126 30.5676 10.737 30.5544 10.7656 30.5383C11.338 30.0484 12.4655 29.6426 13.2946 29.611C14.028 29.5765 14.7642 29.4464 15.4689 29.428C16.5404 29.3923 17.5184 29.0891 18.5738 29.0248C19.4091 28.9709 20.2726 28.7318 21.0942 28.3845C21.6132 28.169 22.3048 28.0263 22.9173 28.0783C23.3384 28.1247 22.7271 28.4107 22.9477 28.5694C23.0629 28.6742 23.5899 28.0026 23.3694 28.7848C23.3694 28.7848 23.3855 28.8134 23.4078 28.8197C24.3825 29.384 24.0732 30.3099 23.7501 30.9425C23.2369 31.9074 22.4423 32.6724 21.1216 32.5654C20.6047 32.5162 20.0507 32.7701 19.5185 32.8612C18.9638 32.9461 18.2969 32.8304 17.8609 33.0935C17.0812 33.5491 16.2612 33.4627 15.4832 33.4845C14.029 33.5088 12.6849 33.9982 11.2823 34.1817C10.9826 34.2179 10.6767 34.2763 10.4211 34.156C9.9484 33.9504 9.43217 34.0702 9.11076 34.2691C8.21643 34.7888 7.36038 34.4028 6.50207 34.2814C6.09984 34.168 5.7738 33.9555 6.2218 33.4787Z" fill="#F74C47"/>
<path d="M20.8295 58.4146C20.5488 58.3837 20.5287 58.1127 20.4702 57.8067C20.3699 57.3925 20.0182 58.0411 19.797 57.7134C19.4669 57.2585 19.4278 56.1138 19.8122 55.6914C20.0918 55.3843 20.1542 54.9918 20.4114 54.6784C21.0943 53.8819 22.1359 53.5242 22.7099 52.6006C23.0238 52.086 23.4913 51.7112 23.9686 51.3874C24.8818 50.8006 25.3246 49.7435 26.1226 49.0518C26.6314 48.6163 27.1785 48.2157 27.713 47.8599C28.2189 47.52 28.5426 47.0565 28.927 46.6342C29.3813 46.1351 29.9158 45.7792 30.5209 45.5156C30.9826 45.3322 31.4399 45.6782 31.8954 45.5171C31.8651 45.9669 32.2186 45.8253 32.4483 45.866C32.4707 45.8723 32.5475 45.9422 32.5475 45.9422C32.3418 46.4149 32.975 46.907 32.5144 47.4285C32.1174 47.8955 32.0017 48.5624 31.5216 48.9819C30.8731 49.5709 30.4326 50.3634 29.8127 50.9364C29.4535 51.2694 29.1012 51.749 28.5758 51.9868C28.0441 52.247 27.913 53.0543 27.4358 53.3781C26.6881 53.891 26.2029 54.6708 25.4329 55.1774C25.1625 55.3665 25.0107 55.7338 24.7724 55.9802C24.2608 56.5114 23.7652 57.0713 23.1769 57.5326C22.5472 58.0546 21.8798 58.7107 20.8295 58.4146Z" fill="#F74C47"/>
</svg>
