<svg width="53" height="63" viewBox="0 0 53 63" fill="none" xmlns="http://www.w3.org/2000/svg">
<path d="M21.0302 11.9621C21.8575 13.6257 20.1864 15.0348 18.9372 14.9076C18.0839 14.8336 17.2365 15.0191 16.3542 15.0393C14.2781 15.0867 12.2332 15.5904 10.1403 15.3579C9.32806 15.2622 8.52171 15.426 7.79983 15.6502C6.57215 16.0106 5.39181 15.7156 4.1957 15.6391C3.79015 15.6172 3.37375 15.5748 2.97312 15.3139C2.47718 14.9722 1.9224 13.8736 2.08676 13.3401C2.12544 13.2146 2.23654 13.0771 2.34882 12.9914C2.83783 12.5752 3.37755 12.1059 4.00886 12.0084C4.65102 11.9314 5.292 11.8025 5.93416 11.7255C6.74169 11.6136 7.58772 11.8227 8.32657 11.4319C8.59338 11.2908 8.89512 11.3151 9.11477 11.3828C10.0549 11.6209 10.9507 11.2785 11.8342 11.3102C12.7069 11.3214 13.5616 11.0007 14.439 11.2195C14.8046 11.315 15.2368 11.139 15.6412 11.109C15.9731 11.091 16.2822 10.9801 16.6599 11.148C16.8699 11.2471 17.2261 10.9274 17.5568 10.8575C18.7144 10.6129 19.7403 10.9634 20.7201 11.5745C20.877 11.6229 21.0049 11.7653 21.0302 11.9621Z" fill="white"/>
<path d="M16.8749 44.1805C16.4367 44.5436 16.0275 44.366 15.755 43.8011C15.3401 42.9174 15.5664 41.4582 16.3295 40.7657C16.6954 40.4146 16.8621 39.9849 17.2075 39.6447C17.4514 39.4106 17.5131 38.9315 18.014 39.0343C18.0454 39.0439 18.1263 38.9486 18.136 38.9172C18.2123 38.1677 18.7487 37.0961 19.3271 36.5013C19.8342 35.9704 20.2774 35.3683 20.7749 34.8688C21.526 34.1038 22.0248 33.2096 22.7445 32.435C23.3121 31.8197 23.7722 31.051 24.1274 30.2328C24.3546 29.7187 24.7567 29.1383 25.2361 28.7534C25.5729 28.4965 25.3277 29.1252 25.5968 29.0879C25.7525 29.0844 25.6708 28.2346 26.0507 28.9529C26.0507 28.9529 26.0821 28.9626 26.1026 28.9517C27.1975 28.6878 27.6123 29.5715 27.8148 30.2524C28.1089 31.305 28.0614 32.407 27.0315 33.2406C26.6234 33.5615 26.3975 34.1275 26.075 34.5607C25.7321 35.0047 25.1694 35.3811 25.0353 35.8723C24.7851 36.74 24.1319 37.2431 23.5837 37.7957C22.5476 38.8164 21.9122 40.098 21.0234 41.1984C20.8314 41.4313 20.6503 41.6847 20.3823 41.7739C19.8982 41.9512 19.6071 42.394 19.5116 42.7597C19.2228 43.753 18.3367 44.064 17.6316 44.5683C17.2622 44.7636 16.8795 44.8347 16.8749 44.1805Z" fill="white"/>
<path d="M44.6522 52.1553C44.4277 52.3266 44.2262 52.1442 43.9728 51.9631C43.6144 51.7324 43.8072 52.4446 43.421 52.36C42.8682 52.2584 42.0502 51.4566 42.0372 50.8857C42.0277 50.4704 41.8021 50.1432 41.7721 49.7389C41.717 48.6912 42.2243 47.7137 42.0026 46.649C41.8749 46.06 41.9548 45.4661 42.077 44.9025C42.3333 43.8477 41.9245 42.7769 42.0251 41.7256C42.093 41.0594 42.2128 40.392 42.3542 39.7656C42.486 39.1706 42.4006 38.6117 42.3875 38.0408C42.3721 37.3661 42.5136 36.7397 42.7697 36.1314C42.9775 35.6801 43.5472 35.6151 43.7659 35.1843C44.0542 35.5309 44.2125 35.1845 44.4068 35.0554C44.4274 35.0446 44.5312 35.0422 44.5312 35.0422C44.7084 35.5263 45.5063 35.4457 45.5325 36.141C45.5673 36.753 45.9437 37.3156 45.8855 37.9504C45.8224 38.8243 46.0501 39.7019 45.9967 40.5444C45.9663 41.0332 46.0421 41.6234 45.8258 42.1581C45.6204 42.7132 46.0824 43.3881 45.9603 43.9517C45.7729 44.8388 45.9596 45.7381 45.7516 46.636C45.6863 46.9595 45.8298 47.3301 45.8272 47.6729C45.8233 48.4104 45.8508 49.1575 45.7431 49.8974C45.6474 50.7097 45.6168 51.6451 44.6522 52.1553Z" fill="white"/>
</svg>
