<svg width="1615" height="1201" viewBox="0 0 1615 1201" fill="none" xmlns="http://www.w3.org/2000/svg">
<path opacity="0.2" d="M1 312.539C316 293.039 413.5 201.43 358.5 169.984C303.5 138.539 183 297.489 643.5 496.489C1002.53 651.638 1441 572.155 1613.5 496.489" stroke="url(#paint0_linear)" stroke-width="4"/>
<circle opacity="0.2" cx="1112" cy="340" r="7" fill="#B008B9"/>
<circle cx="1388" cy="210" r="10" fill="#F74C47"/>
<circle cx="614" cy="10" r="10" fill="#B9DCF2"/>
<circle cx="1233.5" cy="1182.5" r="13.5" fill="#FBEADF"/>
<circle cx="185.5" cy="1165.5" r="7.5" fill="#FBEADF"/>
<circle cx="721.5" cy="1132.5" r="7.5" fill="#B9DCF2"/>
<circle cx="1584.5" cy="1117.5" r="7.5" fill="#FBEADF"/>
<path d="M431.455 1192.98L431.455 1192.98L430.934 1192.46L430.934 1192.46L430.586 1192.11L430.586 1192.11L430.355 1191.88L430.355 1191.88L423.467 1184.99C423.378 1184.9 423.302 1184.8 423.12 1184.56L421.12 1186.06L423.12 1184.56C422.997 1184.4 422.976 1184.36 422.951 1184.31L422.881 1184.17L422.838 1184.1L422.832 1184.09L422.819 1184.06C422.81 1184.04 422.796 1184.01 422.781 1183.97C422.775 1183.96 422.769 1183.95 422.762 1183.93C422.241 1182.68 422.505 1181.15 423.467 1180.19L429.255 1174.4L430.297 1173.35L430.297 1173.35L430.413 1173.24L430.413 1173.24L433.712 1169.94L436.143 1167.5C436.524 1167.12 436.975 1166.85 437.504 1166.67C437.89 1166.56 438.268 1166.5 438.6 1166.5C439.023 1166.5 439.427 1166.57 439.772 1166.7C440.081 1166.81 440.406 1166.99 440.792 1167.29C440.912 1167.4 441.015 1167.48 441.068 1167.51L446.036 1172.48L446.325 1172.77L449.161 1175.61L449.972 1176.42L449.972 1176.42L450.666 1177.12L450.666 1177.12L453.445 1179.9C454.871 1181.32 454.806 1183.49 453.525 1184.73L453.514 1184.75L453.503 1184.76L445.862 1192.4L445.11 1193.15L444.184 1194.08L445.816 1195.71L444.183 1194.08L440.768 1197.5C439.429 1198.83 437.308 1198.83 435.969 1197.5L431.455 1192.98ZM422.855 1184.14C422.855 1184.14 422.855 1184.14 422.854 1184.14C422.855 1184.14 422.855 1184.14 422.855 1184.14ZM441.12 1167.55C441.12 1167.55 441.119 1167.55 441.117 1167.55C441.119 1167.55 441.12 1167.55 441.12 1167.55Z" stroke="#FFC43A" stroke-width="5"/>
<defs>
<linearGradient id="paint0_linear" x1="-38" y1="307.039" x2="1538" y2="567" gradientUnits="userSpaceOnUse">
<stop stop-color="#C58764" stop-opacity="0"/>
<stop offset="0.240363" stop-color="#C58764"/>
<stop offset="0.925308" stop-color="#C58764" stop-opacity="0"/>
</linearGradient>
</defs>
</svg>
