<svg width="1722" height="507" viewBox="0 0 1722 507" fill="none" xmlns="http://www.w3.org/2000/svg">
<path d="M1 0H1721V368L1284 350L975 253L674 120L431 31L222 12L1 75V0Z" fill="white"/>
<path d="M1528.5 239.619C1329 282 1324.5 194.618 1135.5 144.618C1008.26 110.957 884.055 144.695 826 191C966.667 269.234 1333.4 429.7 1653 334.5L1720.5 318C1667.5 244 1571.76 228.105 1528.5 239.619Z" fill="#B9DCF2"/>
<circle cx="1085.5" cy="254.5" r="6.5" fill="white"/>
<path opacity="0.4" d="M925 254.5C950 236.334 1025.3 207.8 1082.5 215C1154 224 1227.5 291.379 1319.5 301C1402.5 309.68 1485 322 1640.5 258.501" stroke="white" stroke-width="3"/>
<path fill-rule="evenodd" clip-rule="evenodd" d="M1480.5 344.619C1565.57 344.09 1646.16 332.901 1721 315.377L1720.96 403.877L1720.51 404.048L1720.5 380.378C1598.14 423.3 1220.94 419.001 743.261 168.378C351.523 -37.1549 127.128 28.346 1.00195 92.3806V94.8772L1 94.8769V55.4584C302.332 -70.1542 547.971 40.681 811.583 159.626C1013.09 250.547 1225.09 346.206 1480.5 344.619Z" fill="#FBEADF"/>
<path d="M1 126.225C464.045 -95.316 680.401 416.676 1491 485.192C1584.07 493.058 1659.85 499.333 1721 504.243" stroke="white" stroke-width="4"/>
</svg>
