<svg width="150" height="121" viewBox="0 0 150 121" fill="none" xmlns="http://www.w3.org/2000/svg">
<path d="M120.625 76.0078L96.8776 99.7637L94.5388 102.103L91.6603 104.983L81.0459 115.601C73.8497 122.8 62.3357 122.8 55.1395 115.601L41.1068 101.563L39.4877 99.9437L38.4082 98.8638L37.6886 98.144L16.2798 76.7277C15.5602 76.0078 15.0205 75.2879 14.4808 74.5681C13.9411 73.8482 13.5813 73.3083 13.2215 72.5884C12.8616 72.0485 12.6817 71.5086 12.5018 71.1487C9.62333 64.4898 10.8827 56.2113 16.2798 50.8122L34.2704 32.8153L37.5087 29.5759L37.8685 29.216L48.1231 18.9577L55.6792 11.3991C57.838 9.23944 60.3567 7.79969 63.0553 6.89984C64.8544 6.35994 66.8333 6 68.8123 6C70.9712 6 73.13 6.35994 75.109 7.07982C77.0879 7.79969 78.887 8.8795 80.6861 10.3193C81.0459 10.6792 81.4057 10.8592 81.7655 11.2191L97.4173 26.8764L98.3168 27.7762L107.132 36.5947L109.651 39.1142L111.81 41.2739L120.445 49.9124C127.821 57.2911 127.821 68.989 120.625 76.0078Z" fill="#B9DCF2"/>
<circle cx="11" cy="114" r="7" fill="#F2F4F2"/>
<circle cx="138" cy="12" r="12" fill="#F2F4F2"/>
<circle cx="26" cy="29" r="23.5" stroke="white" stroke-width="5"/>
</svg>
