<svg width="1723" height="485" viewBox="0 0 1723 485" fill="none" xmlns="http://www.w3.org/2000/svg">
<path d="M1 0H1722V74L1552 25L1362 15L1113 74L895 160L623 251L293 305L1 251V0Z" fill="white"/>
<path opacity="0.4" d="M769 211C730.624 204.699 710.022 172.785 625 185C448 210.43 405.911 127 262 127C130 127 100.973 195.279 45 226" stroke="white" stroke-width="3"/>
<path fill-rule="evenodd" clip-rule="evenodd" d="M1722.29 85.5816C1429.31 -38.0881 1182.82 62.3925 922.884 168.354C731.682 246.297 533.206 327.205 303.598 324.047C194.293 322.544 94.0174 302.254 1 271.896L1 211.713C95.8809 240.127 196.613 258.591 308.904 259.289C553.975 260.812 758.708 188.149 952.498 119.371C1205.52 29.5714 1439.88 -53.6066 1721 43.5976L1722.29 85.5816Z" fill="#FBEADF"/>
<path d="M1722 174.668C1258.69 -47.0971 1042.2 395.344 231.134 463.929C138.014 471.803 62.1819 478.085 1.00002 483" stroke="white" stroke-width="4"/>
</svg>
