<svg width="189" height="138" viewBox="0 0 189 138" fill="none" xmlns="http://www.w3.org/2000/svg">
<path opacity="0.2" d="M177.181 49.3225L177.172 49.3314L177.163 49.3403L131.113 95.4061L126.578 99.9428L120.996 105.527L100.414 126.117C87.2403 139.294 66.18 139.294 53.0067 126.117L25.7955 98.8959L24.3811 100.31L25.7955 98.8959L22.6557 95.7551L20.5626 93.6612L19.1482 95.0751L20.5626 93.6611L19.1671 92.2652L-22.3472 50.7363C-23.6288 49.4543 -24.5971 48.1672 -25.6501 46.7627C-26.656 45.421 -27.2784 44.4797 -27.9033 43.2294L-27.959 43.1181L-28.028 43.0145C-28.293 42.617 -28.5037 42.2014 -28.7 41.7694C-28.7529 41.6531 -28.817 41.5061 -28.886 41.3479C-29.011 41.0611 -29.1521 40.7375 -29.2715 40.4929C-34.5212 28.298 -32.1888 13.1557 -22.3472 3.31068L12.5388 -31.5876L18.8183 -37.8693L17.4039 -39.2832L18.8183 -37.8693L19.516 -38.5673L39.4011 -58.4593L54.0532 -73.1166C57.9876 -77.0524 62.5835 -79.6892 67.5459 -81.3482C70.8826 -82.347 74.5132 -83 78.1056 -83C82.0746 -83 86.0281 -82.3375 89.632 -81.0266C93.1936 -79.731 96.4705 -77.7814 99.8014 -75.1262C100.222 -74.7181 100.633 -74.4101 100.949 -74.1732L100.977 -74.1522C101.334 -73.884 101.574 -73.7006 101.809 -73.4655L132.16 -43.104L133.904 -41.3591L150.998 -24.259L155.882 -19.3732L160.069 -15.1854L176.814 1.56577C190.36 15.116 190.308 36.5194 177.181 49.3225Z" stroke="#F8F9F8" stroke-width="4"/>
</svg>
