<svg width="194" height="90" viewBox="0 0 194 90" fill="none" xmlns="http://www.w3.org/2000/svg">
<path d="M108.99 62.0897V62.932C108.99 66.7826 106.464 69.7908 102.494 69.7908C98.7645 69.7908 95.6368 66.6622 95.6368 62.932C95.6368 59.2018 98.7645 56.0732 102.494 56.0732C104.539 56.0732 106.223 56.7952 107.426 57.9985C107.546 58.1188 107.546 58.2392 107.426 58.2392L105.622 60.0441C105.501 60.1644 105.501 60.1644 105.381 60.0441C104.779 59.4425 103.937 58.9612 102.614 58.9612C100.449 58.9612 99.0051 60.7661 99.0051 62.932C99.0051 65.098 100.449 66.9029 102.614 66.9029C104.779 66.9029 105.742 65.5793 105.862 64.6166C105.862 64.4963 105.862 64.376 105.742 64.376H103.095C102.975 64.376 102.855 64.2556 102.855 64.1353V62.0897C102.855 61.9694 102.975 61.8491 103.095 61.8491H108.99C108.99 61.9694 108.99 61.9694 108.99 62.0897Z" fill="#31496B"/>
<path d="M123.186 56.0735H124.509C124.629 56.0735 124.75 56.0735 124.75 56.1938L131.005 69.4301C131.005 69.5504 131.005 69.6707 130.885 69.6707H127.637C127.517 69.6707 127.396 69.6707 127.396 69.5504L126.554 67.7455C126.554 67.6251 126.434 67.6251 126.314 67.6251H121.261C121.141 67.6251 121.02 67.6251 121.02 67.7455L120.178 69.5504C120.178 69.6707 120.058 69.6707 119.938 69.6707H116.69C116.569 69.6707 116.449 69.5504 116.569 69.4301L122.825 56.1938C122.945 56.1938 123.066 56.0735 123.186 56.0735ZM122.584 64.7372H125.111C125.231 64.7372 125.351 64.6169 125.231 64.4966L124.028 61.6086C124.028 61.4883 123.787 61.4883 123.787 61.6086L122.584 64.4966C122.344 64.7372 122.464 64.7372 122.584 64.7372Z" fill="#31496B"/>
<path d="M152.538 56.0735H154.102C154.222 56.0735 154.342 56.1938 154.342 56.3141V69.5504C154.342 69.6707 154.222 69.7911 154.102 69.7911H151.214C151.094 69.7911 150.974 69.6707 150.974 69.5504V63.8949C150.974 63.7746 150.853 63.6542 150.733 63.7746L147.245 68.8284C147.124 68.9487 147.004 68.9487 147.004 68.8284L143.515 63.7746C143.395 63.6542 143.275 63.6542 143.275 63.8949V69.5504C143.275 69.6707 143.154 69.7911 143.034 69.7911H140.388C140.267 69.7911 140.147 69.6707 140.147 69.5504V56.3141C140.147 56.1938 140.267 56.0735 140.388 56.0735H141.951C142.072 56.0735 142.192 56.0735 142.192 56.1938L147.124 63.7746C147.245 63.8949 147.365 63.8949 147.365 63.7746L152.297 56.1938C152.417 56.0735 152.417 56.0735 152.538 56.0735Z" fill="#31496B"/>
<path d="M172.869 67.0235V69.5504C172.869 69.6707 172.748 69.7911 172.628 69.7911H164.207C164.087 69.7911 163.967 69.6707 163.967 69.5504V56.3141C163.967 56.1938 164.087 56.0735 164.207 56.0735H172.387C172.508 56.0735 172.628 56.1938 172.628 56.3141V58.8411C172.628 58.9614 172.508 59.0817 172.387 59.0817H167.455C167.335 59.0817 167.215 59.2021 167.215 59.3224V61.6086C167.215 61.729 167.335 61.8493 167.455 61.8493H170.703C170.824 61.8493 170.944 61.9696 170.944 62.09V64.6169C170.944 64.7372 170.824 64.8575 170.703 64.8575H167.455C167.335 64.8575 167.215 64.9779 167.215 65.0982V67.0235C167.215 67.1438 167.335 67.2641 167.455 67.2641H172.628C172.748 66.9031 172.869 66.9031 172.869 67.0235Z" fill="#31496B"/>
<path d="M181.65 65.6998C181.65 65.5795 181.77 65.5795 181.891 65.4592L184.778 64.9778C184.898 64.9778 184.898 64.9778 185.018 65.2185C185.379 65.9405 185.981 66.9031 187.545 66.9031C188.507 66.9031 189.349 66.5421 189.349 65.6998C189.349 64.3762 188.026 64.3762 186.101 63.8949C183.936 63.2932 181.891 62.5712 181.891 59.8037C181.891 57.8784 183.936 55.9531 186.823 55.9531C190.311 55.9531 191.875 58.1191 192.236 59.8037C192.236 59.924 192.116 59.924 191.996 60.0443L189.108 60.4053C188.988 60.4053 188.988 60.4053 188.868 60.1647C188.627 59.3224 187.905 58.841 186.823 58.841C186.101 58.841 185.139 59.0817 185.139 60.0443C185.139 60.8866 185.981 61.1273 188.266 61.7289C190.913 62.4509 192.477 63.2932 192.477 65.6998C192.477 68.1064 190.432 69.791 187.424 69.791C183.936 69.791 182.011 67.8658 181.65 65.6998Z" fill="#31496B"/>
<path d="M116.328 36.5803V37.9039C116.328 43.9204 112.358 48.7335 106.103 48.7335C100.208 48.7335 95.2761 43.9204 95.2761 37.9039C95.2761 32.0077 100.088 27.0742 106.103 27.0742C109.231 27.0742 111.877 28.1572 113.802 29.9621C113.922 30.0825 113.922 30.3231 113.802 30.4434L110.915 33.3314C110.794 33.4517 110.674 33.4517 110.554 33.3314C109.592 32.4891 108.389 31.6467 106.103 31.6467C102.614 31.6467 100.449 34.5347 100.449 37.9039C100.449 41.3934 102.735 44.161 106.103 44.161C109.471 44.161 111.035 42.1154 111.276 40.5511C111.276 40.4308 111.155 40.3105 111.035 40.3105H106.825C106.584 40.3105 106.464 40.1901 106.464 40.0698V36.8209C106.464 36.7006 106.584 36.5803 106.825 36.5803H116.088C116.208 36.3396 116.328 36.4599 116.328 36.5803Z" fill="#31496B"/>
<path d="M132.207 44.4017V48.2522C132.207 48.3726 132.086 48.4929 131.966 48.4929H119.816C119.575 48.4929 119.455 48.3726 119.455 48.2522V27.4352C119.455 27.1945 119.575 27.0742 119.816 27.0742H124.267C124.387 27.0742 124.508 27.1945 124.508 27.4352V43.8C124.508 44.0407 124.628 44.161 124.748 44.161H131.846C132.086 44.161 132.207 44.2813 132.207 44.4017Z" fill="#31496B"/>
<path d="M149.29 44.4017V48.2522C149.29 48.3726 149.17 48.4929 149.049 48.4929H135.817C135.576 48.4929 135.456 48.3726 135.456 48.2522V27.4352C135.456 27.1945 135.576 27.0742 135.817 27.0742H148.689C148.809 27.0742 148.929 27.1945 148.929 27.4352V31.2858C148.929 31.4061 148.809 31.5264 148.689 31.5264H140.869C140.749 31.5264 140.629 31.6467 140.629 31.7671V35.377C140.629 35.4973 140.749 35.6176 140.869 35.6176H145.922C146.042 35.6176 146.162 35.7379 146.162 35.8583V39.7088C146.162 39.8292 146.042 39.9495 145.922 39.9495H140.869C140.749 39.9495 140.629 40.0698 140.629 40.1901V43.3187C140.629 43.5594 140.749 43.6797 140.869 43.6797H148.929C149.17 44.161 149.29 44.2813 149.29 44.4017Z" fill="#31496B"/>
<path d="M151.936 48.3726V27.4352C151.936 27.1945 152.056 27.0742 152.297 27.0742H161.439C165.77 27.0742 169.259 30.2028 169.259 34.655C169.259 37.4226 168.056 39.5885 165.65 41.0325C165.529 41.1528 165.529 41.2731 165.529 41.3934L169.138 48.0116C169.259 48.2522 169.138 48.3726 168.898 48.3726H164.086C163.966 48.3726 163.845 48.3726 163.725 48.1319L160.718 42.2358C160.718 42.1154 160.477 41.9951 160.357 41.9951H157.47C157.349 41.9951 157.229 42.1154 157.229 42.2358V48.0116C157.229 48.1319 157.109 48.2522 156.988 48.2522H152.537C152.056 48.6132 151.936 48.4929 151.936 48.3726ZM160.838 37.7836C162.642 37.7836 164.086 36.4599 164.086 34.7753C164.086 32.9704 162.522 31.7671 160.838 31.7671H157.349C157.229 31.7671 157.109 31.8874 157.109 32.0077V37.4226C157.109 37.5429 157.229 37.6632 157.349 37.6632H160.838V37.7836Z" fill="#31496B"/>
<path d="M181.048 27.1946H183.093C183.213 27.1946 183.333 27.1946 183.454 27.4352L193.318 48.2522C193.438 48.4929 193.318 48.6132 193.077 48.6132H188.025C187.905 48.6132 187.784 48.6132 187.664 48.3726L186.341 45.4847C186.341 45.3643 186.22 45.244 185.98 45.244H178.04C177.92 45.244 177.8 45.244 177.679 45.4847L176.356 48.3726C176.356 48.4929 176.236 48.6132 175.995 48.6132H170.943C170.702 48.6132 170.702 48.4929 170.702 48.2522L180.566 27.4352C180.687 27.1946 180.807 27.1946 181.048 27.1946ZM180.085 40.7918H184.055C184.296 40.7918 184.296 40.6715 184.296 40.4308L182.371 35.9786C182.251 35.738 182.01 35.738 182.01 35.9786L180.085 40.4308C179.724 40.6715 179.845 40.7918 180.085 40.7918Z" fill="#31496B"/>
<path d="M80.2397 58.6004L64.3604 74.4839L62.7965 76.0482L60.8717 77.9735L53.7742 85.0729C48.9622 89.8861 41.2632 89.8861 36.4513 85.0729L27.068 75.6872L25.9853 74.6043L25.2635 73.8823L24.7823 73.401L10.4669 59.0818C9.9857 58.6004 9.62481 58.1191 9.26391 57.6378C8.90302 57.1565 8.66243 56.7955 8.42183 56.3142C8.18123 55.9532 8.06092 55.5922 7.94063 55.3515C6.01586 50.8993 6.85795 45.3642 10.4669 41.7543L22.4967 29.7213L24.6621 27.5554L24.9027 27.3147L31.7596 20.456L36.8121 15.4021C38.2557 13.9582 39.9399 12.9955 41.7444 12.3939C42.9473 12.0329 44.2706 11.7922 45.5939 11.7922C47.0375 11.7922 48.4811 12.0329 49.8043 12.5142C51.1276 12.9955 52.3306 13.7175 53.5336 14.6801C53.7742 14.9208 54.0148 15.0411 54.2554 15.2818L64.7213 25.7505L65.3228 26.3521L71.2174 32.2483L72.9015 33.9329L74.3451 35.3768L80.1194 41.1526C85.0516 46.0862 85.0517 53.9076 80.2397 58.6004Z" fill="#0085FF"/>
<path d="M66.1636 23.4642C66.1636 24.1862 66.0433 24.9082 65.8027 25.6302C65.8027 25.6302 65.8027 25.6302 65.8027 25.7505C65.8027 25.8708 65.6824 25.9912 65.6824 25.9912V26.1115C65.6824 26.2318 65.5621 26.3521 65.5621 26.4725C65.5621 26.4725 65.5621 26.4725 65.5621 26.5928C65.5621 26.7131 65.4418 26.8335 65.3215 27.0741C65.3215 27.1945 65.2012 27.3148 65.2012 27.4351C64.8403 28.1571 64.3591 28.9994 63.9982 29.7214C63.8779 29.8417 63.7576 30.0824 63.6373 30.2027C63.6373 30.323 63.517 30.323 63.517 30.4434C63.3967 30.5637 63.2764 30.8043 63.2764 30.9247C63.1561 31.1653 63.0358 31.2857 62.9155 31.5263L62.7952 31.6467C62.7952 31.6467 62.7952 31.6466 62.7952 31.767C62.7952 31.8873 62.6749 31.8873 62.6749 32.0076C62.5546 32.2483 62.314 32.489 62.1937 32.8499C61.5922 33.8126 60.9907 34.7752 60.5095 35.6175C60.5095 35.7379 60.3892 35.8582 60.3892 35.9785C60.3892 36.0988 60.2689 36.0988 60.2689 36.2192C60.1486 36.3395 60.1486 36.4598 60.0283 36.7005C60.0283 36.7005 60.0283 36.7005 60.0283 36.8208C59.908 36.9412 59.9081 37.0615 59.9081 37.3021C59.9081 37.4225 59.7878 37.5428 59.7878 37.6631C59.6675 37.9038 59.6675 38.1444 59.5472 38.3851C59.5472 38.5054 59.4269 38.6258 59.4269 38.7461V38.8664C59.4269 38.9868 59.4269 39.1071 59.4269 39.1071C59.4269 39.2274 59.4269 39.2274 59.4269 39.3477C59.4269 39.4681 59.4269 39.5884 59.4269 39.7087C59.4269 39.8291 59.4269 39.9494 59.4269 40.0697C59.4269 40.19 59.4269 40.3104 59.4269 40.4307C59.4269 40.551 59.4269 40.551 59.4269 40.6714C59.4269 41.0324 59.5471 41.3933 59.6674 41.7543C59.6674 41.8747 59.7878 41.995 59.7878 42.1153C59.9081 42.356 60.0284 42.5966 60.1487 42.717C60.1487 42.8373 60.2689 42.8373 60.2689 42.9576C60.3892 43.078 60.3893 43.1983 60.5095 43.3186C60.5095 43.439 60.6298 43.4389 60.6298 43.5593C60.7501 43.6796 60.8704 43.9203 61.111 44.0406C61.2313 44.1609 61.2313 44.1609 61.3516 44.2813C61.4719 44.4016 61.4719 44.4016 61.5922 44.5219C61.7125 44.6422 61.9531 44.7626 62.0734 44.8829C62.0734 44.8829 62.0734 44.8829 62.1937 44.8829C62.314 45.0032 62.4343 45.0032 62.5546 45.1236C62.6749 45.1236 62.6749 45.2439 62.7952 45.2439C63.0358 45.3642 63.2764 45.6049 63.6373 45.7252C63.7576 45.8455 63.8779 45.8455 63.9982 45.8455C64.2388 45.9659 64.4794 46.0862 64.8403 46.0862C64.9606 46.0862 65.0809 46.2065 65.2012 46.2065C65.3215 46.2065 65.4418 46.2065 65.4418 46.3269C65.5621 46.3269 65.8027 46.4472 65.923 46.4472C65.923 50.2977 65.923 54.9906 65.5621 59.8038C65.5621 59.8038 65.5621 59.8038 65.5621 59.9241C65.2012 65.8202 64.4794 71.7164 63.3967 76.4092L61.4719 78.3345L54.3743 85.434C49.5624 90.2471 41.8634 90.2471 37.0514 85.434L27.6682 76.0483L26.5855 74.9653L25.8637 74.2433L25.3825 73.762L11.0671 59.4428C10.5859 58.9615 10.225 58.4801 9.86408 57.9988C9.50318 57.5175 9.26259 57.1565 9.02199 56.6752C16.3602 54.7499 18.5255 46.8082 20.2097 42.8373C21.8939 38.9868 21.4127 35.0159 25.2622 27.7961C25.6231 27.1945 25.984 26.4725 26.4652 25.7505C21.8939 25.2692 15.1572 22.5016 11.0671 19.8544C7.21752 17.4478 4.08976 11.0703 3.12738 7.58074C6.25513 9.74667 7.09723 11.4313 14.1948 13.4769C18.2849 14.6802 23.3375 15.0412 27.0667 15.2818C23.9389 13.5972 23.9389 13.8379 21.0518 10.8296C19.2473 8.90436 18.5255 6.73843 17.5631 3.60986C26.9464 9.02469 31.638 10.228 45.2317 12.0329C45.4723 12.0329 45.8332 12.1533 46.1941 12.1533C46.555 12.2736 47.0362 12.2736 47.5174 12.3939C47.9986 12.5142 48.6 12.6346 49.2015 12.7549C49.3218 12.7549 49.5624 12.8752 49.6827 12.8752H49.803C50.0436 12.8752 50.1639 12.9956 50.4045 12.9956C50.6451 12.9956 50.7654 13.1159 51.006 13.1159C51.4872 13.2362 51.8481 13.3566 52.3293 13.4769C52.5699 13.5972 52.8105 13.5972 53.0511 13.7175C53.412 13.8379 53.8931 13.9582 54.254 14.0785C54.4946 14.1989 54.7352 14.1989 54.9758 14.3192C55.6976 14.5599 56.2991 14.8005 57.0209 15.0412C57.2615 15.1615 57.5021 15.1615 57.7427 15.2818C57.9833 15.4022 58.1036 15.4022 58.3442 15.5225C59.066 15.7632 59.7878 16.1241 60.3892 16.4851C60.6298 16.6055 60.7501 16.7258 60.9907 16.8461C61.2313 16.9664 61.3516 17.0868 61.5922 17.2071C61.7125 17.2071 61.8328 17.3274 61.8328 17.3274C61.9531 17.4478 62.0734 17.4478 62.0734 17.4478C62.314 17.5681 62.4343 17.6884 62.6749 17.8088C62.7952 17.9291 62.7952 17.9291 62.9155 18.0494C63.0358 18.1697 63.2764 18.2901 63.3967 18.4104C63.517 18.5307 63.7576 18.6511 63.8779 18.8917C63.9982 19.012 63.9982 19.012 64.1185 19.1324C64.2388 19.2527 64.2388 19.2527 64.3591 19.373C64.4794 19.4934 64.4794 19.4934 64.5997 19.6137C64.72 19.734 64.72 19.734 64.8403 19.8544C64.9606 19.9747 64.9606 19.9747 65.0809 20.095C65.2012 20.2153 65.2012 20.3357 65.3215 20.3357C65.4418 20.456 65.4418 20.456 65.5621 20.5763L65.6824 20.6967C65.8026 20.817 65.923 21.0577 65.923 21.178C66.1636 21.539 66.2838 21.9 66.4041 22.1406V22.2609C66.4041 22.3813 66.5244 22.5016 66.5244 22.6219C66.5244 22.7423 66.6447 22.8626 66.6447 23.1033C66.6447 23.2236 66.6447 23.2236 66.6447 23.3439C66.6447 23.4642 66.6447 23.5846 66.6447 23.7049C66.1635 23.1033 66.1636 23.3439 66.1636 23.4642Z" fill="url(#paint0_radial)"/>
<path d="M71.577 44.0405C74.2236 35.2565 73.983 28.9993 66.5245 23.7048C64.7201 30.9246 59.066 34.6548 59.066 39.2274C59.066 41.8746 62.1938 46.0861 65.2012 46.0861C68.0884 46.0861 69.532 44.2812 69.7726 43.3186C70.3741 43.5592 70.735 43.6795 71.577 44.0405Z" fill="url(#paint1_radial)"/>
<path d="M17.0831 3.24902C26.4663 8.66385 31.158 9.86715 44.7516 11.6721C48.3606 12.1534 66.285 14.921 66.285 23.4644C66.285 28.7589 59.0671 34.655 59.0671 39.8292C59.0671 43.8001 62.676 45.7253 65.4429 46.2067C65.4429 49.4556 65.5632 52.3435 65.3226 55.9534C64.9617 60.7666 59.0671 66.5424 49.8041 66.5424C34.8872 66.5424 19.3688 48.8539 21.2935 38.7462C22.1356 34.294 23.2183 31.1655 26.1054 25.51C21.5341 25.0287 14.7974 22.2611 10.7073 19.6138C6.85776 17.2072 3.73002 10.8298 2.76764 7.34023C5.89539 9.50616 6.73747 11.1908 13.8351 13.2364C17.9252 14.4397 22.9777 14.8007 26.7069 15.0413C23.5792 13.3567 23.5792 13.5974 20.692 10.5891C18.7673 8.54352 18.0455 6.37759 17.0831 3.24902Z" fill="url(#paint2_radial)"/>
<path d="M57.5025 30.8043C57.5025 32.6093 57.1416 33.6922 55.5777 34.4142C55.3372 34.5345 54.856 34.7752 54.4951 34.8955C54.1342 35.0159 53.8936 35.1362 53.5327 35.2565C53.1718 35.3768 52.8109 35.4972 52.45 35.4972C52.45 35.4972 52.45 35.4972 52.3297 35.4972C52.0891 35.6175 51.7282 35.6175 51.3673 35.6175H51.247C50.6455 35.7378 49.9238 35.7378 49.0817 35.7378C46.5554 35.7378 43.3074 34.8955 43.3074 31.7669C43.3074 29.1197 44.6307 25.5098 46.6757 23.2235C47.8787 21.8999 49.202 21.0576 50.7658 21.0576C51.7282 21.0576 52.8109 21.6593 53.8936 22.6219C55.8184 24.5472 57.5025 27.4351 57.5025 30.8043Z" fill="url(#paint3_radial)"/>
<path d="M47.2778 28.879C47.6387 28.157 48.6011 26.8334 49.0823 26.4724C49.8041 27.5554 51.1274 29.4807 50.5259 29.4807C49.9244 29.3603 47.5184 28.9993 47.2778 28.879Z" fill="white"/>
<path d="M4.93232 10.5889C6.97738 13.7174 14.4359 20.4559 31.9994 20.4559C30.9167 22.3812 27.5484 25.1487 26.2251 25.3894C25.0221 25.5097 14.9171 22.7422 11.669 20.2152C5.53382 15.402 4.69172 11.3108 4.93232 10.5889Z" fill="url(#paint4_radial)"/>
<path d="M19.3676 6.61816C21.2924 8.66377 25.984 12.394 29.8336 13.4769C28.0291 15.1616 22.3751 12.755 20.8112 10.7094C19.2473 8.7841 18.6458 6.97915 19.3676 6.61816Z" fill="url(#paint5_radial)"/>
<path d="M68.3297 44.4016L63.6381 40.7917C63.6381 40.7917 70.0139 42.4764 69.653 43.078C69.2921 43.8 68.3297 44.4016 68.3297 44.4016Z" fill="#9B4A31"/>
<path d="M32.961 64.978C32.961 65.0984 32.961 65.2187 32.961 65.339C32.961 68.9489 31.6377 71.9571 29.4723 71.9571C29.4723 73.2808 28.6302 75.0857 27.5476 75.928L26.2243 74.6044L25.5025 73.8824C26.5852 72.5588 27.0664 70.1522 27.6679 70.0319C28.2694 69.9115 31.9986 68.5879 31.9986 67.3846C31.8783 66.1813 32.961 64.978 32.961 64.978Z" fill="#FF8728"/>
<path d="M74.4644 35.4972C74.2238 31.2857 72.4194 26.5928 67.3669 22.622C65.6827 13.4769 51.9687 11.311 39.6983 9.3857C28.5106 7.70109 18.0447 6.01648 18.0447 0H15.5184C15.5184 6.61812 18.2853 10.3483 20.6912 12.3939C20.9318 12.6346 21.1724 12.7549 21.413 12.9956C5.29311 11.4313 2.76684 5.41483 2.52625 0.48132C2.52625 0.36099 2.52625 0.12033 2.52625 0H0C0 0.360989 0 0.721979 0 1.08297C0.60149 18.4104 15.9996 25.0285 24.1799 26.2318C23.5784 27.3148 23.0972 28.3978 22.616 29.7214C21.7739 32.0077 20.9318 34.4143 20.2101 36.9412C17.5635 45.4846 14.9169 54.2686 8.05996 55.3516C8.18026 55.7126 8.42085 56.0736 8.54114 56.3142C8.78174 56.7955 9.02235 57.1565 9.38324 57.6379C15.759 56.0736 18.8868 49.2148 21.2927 41.995C21.7739 40.5511 22.2551 39.1071 22.616 37.6631C24.9017 30.0824 27.1873 22.8626 31.9992 22.8626V20.3357H31.879C29.2324 20.3357 27.1873 21.6593 25.6235 23.8252C21.413 23.4643 9.74413 20.456 4.81192 10.589C9.50354 14.1989 17.8041 16.0038 29.7136 16.0038V13.4769C27.1873 13.4769 21.7739 12.033 19.2477 6.61812C23.6987 9.50603 31.2775 10.7093 39.2171 11.9126C40.0592 12.033 40.9013 12.1533 41.7434 12.2736C45.8335 12.8753 49.9236 13.5972 53.5326 14.6802C60.149 16.4851 64.8406 19.3731 64.8406 24.5472C64.8406 24.9082 64.7203 25.3895 64.7203 25.7505C64.6 26.3522 64.2391 26.9538 63.9985 27.5555C63.397 28.6384 62.6752 29.7214 61.8331 30.8044C60.0287 33.3313 58.2242 35.8582 58.2242 38.7461C58.2242 42.8373 60.991 45.8456 63.8782 46.5675C63.8782 52.3434 63.7579 58.3598 63.2767 63.895C62.7955 69.0692 62.0737 73.8823 60.8708 77.8532L62.7955 75.9279L64.3594 74.3637C66.0436 66.1813 66.4045 56.0736 66.4045 46.5675C68.2089 46.3269 69.051 45.4846 69.7728 44.5219L71.8179 45.8456C73.1411 44.2813 74.8253 40.1901 74.4644 35.4972ZM70.7352 42.8373C70.6149 42.5967 70.3743 42.4763 70.1337 42.356C69.6525 41.995 69.2916 41.8747 68.8104 41.634C67.9683 41.273 67.1263 41.0324 66.4045 40.7917C65.5624 40.5511 64.8406 40.1901 64.2391 39.7088C63.6376 39.2274 63.2767 38.6258 63.2767 37.9038H62.194C62.194 38.3851 62.3143 38.9868 62.5549 39.3478C62.7955 39.8291 63.1564 40.1901 63.5173 40.5511C64.2391 41.273 65.0812 41.634 65.9233 41.995C66.7654 42.356 67.6074 42.717 68.3292 43.078C68.4495 43.1983 68.5698 43.1983 68.8104 43.3186C68.0886 44.4016 67.4871 45.0032 65.4421 45.0032C63.2767 45.0032 60.2693 42.5967 60.2693 38.8664C60.2693 36.5802 61.9534 34.1736 63.6376 32.0077C64.7203 30.4434 65.803 28.8791 66.5248 27.3148C66.7654 26.7132 66.8857 26.1115 67.006 25.5099C69.5322 27.6758 70.8555 30.0824 71.5773 32.489C72.66 36.4599 71.8179 40.4307 70.7352 42.8373Z" fill="black"/>
<path d="M32.9621 64.978C32.9621 65.0984 32.9621 65.2187 32.9621 65.339C32.8418 67.2643 32.3606 68.7082 31.3983 69.6709C30.6765 70.3928 29.5938 70.8742 28.2705 70.9945C28.0299 72.6791 27.3081 73.8824 26.2254 74.7247L25.5036 74.0027L25.0225 73.5214C25.9848 72.9198 26.5863 71.8368 26.5863 70.1522V69.1896H27.5487C28.7517 69.1896 29.7141 68.9489 30.3156 68.4676C30.9171 67.8659 31.278 66.6626 31.278 64.978H32.9621Z" fill="black"/>
<path d="M52.3298 21.6593C52.9313 21.8999 53.5328 22.3813 54.014 22.7422L55.4575 21.0576C54.7357 20.456 53.8937 19.9747 53.0516 19.734C52.2095 19.373 51.1268 19.373 50.1644 19.4934C49.202 19.734 48.3599 20.095 47.6381 20.5763C46.9164 21.0576 46.3149 21.6593 45.7134 22.3813L46.7961 23.3439C47.8787 22.2609 49.0817 21.4186 50.405 21.2983C51.1268 21.2983 51.7283 21.4186 52.3298 21.6593Z" fill="black"/>
<path d="M55.5781 34.5346C55.2173 34.7752 54.8564 34.8956 54.4955 35.0159H54.3752C54.0143 35.1362 53.7737 35.2565 53.4128 35.3769C53.0519 35.4972 52.691 35.6175 52.3301 35.6175C52.3301 35.6175 52.3301 35.6175 52.2098 35.6175C51.9692 35.7379 51.6083 35.7379 51.2474 35.7379H51.1271L51.0068 34.6549C51.6083 34.5346 52.2098 34.2939 52.8113 34.0532C53.1722 33.9329 53.4128 33.8126 53.6534 33.6923C53.894 33.5719 54.2549 33.3313 54.4955 33.2109L55.5781 34.5346Z" fill="black"/>
<path d="M51.9688 25.1489C50.8861 25.1489 49.9237 25.6302 49.0816 26.3522C49.3222 26.9539 49.5628 27.6758 49.8034 28.3978C49.9237 28.6385 49.6831 28.9995 49.3222 28.9995C48.6004 28.9995 47.8786 28.8791 47.1569 28.8791C46.9163 29.3605 46.796 29.8418 46.796 30.2028C46.796 31.4061 48.7207 32.9703 51.6079 32.9703C53.8935 32.9703 56.2995 31.6467 56.2995 30.9247C56.4198 28.0368 54.7356 25.1489 51.9688 25.1489Z" fill="black"/>
<path d="M36.4507 51.3808C40.3706 51.3808 43.5483 48.2022 43.5483 44.2813C43.5483 40.3604 40.3706 37.1819 36.4507 37.1819C32.5309 37.1819 29.3531 40.3604 29.3531 44.2813C29.3531 48.2022 32.5309 51.3808 36.4507 51.3808Z" fill="url(#paint6_radial)"/>
<defs>
<radialGradient id="paint0_radial" cx="0" cy="0" r="1" gradientUnits="userSpaceOnUse" gradientTransform="translate(44.744 51.0794) rotate(134.069) scale(37.5568 50.4382)">
<stop offset="0.000909161" stop-color="#FFC83C"/>
<stop offset="0.4036" stop-color="#FFC63B"/>
<stop offset="0.6074" stop-color="#FEBE35"/>
<stop offset="0.7666" stop-color="#FDB12D"/>
<stop offset="0.9018" stop-color="#FC9E21"/>
<stop offset="1" stop-color="#FB8B14"/>
</radialGradient>
<radialGradient id="paint1_radial" cx="0" cy="0" r="1" gradientUnits="userSpaceOnUse" gradientTransform="translate(71.5945 33.182) scale(19.0321 19.0371)">
<stop stop-color="#FAB17D"/>
<stop offset="0.2598" stop-color="#E49263"/>
<stop offset="0.5573" stop-color="#CF744A"/>
<stop offset="0.8145" stop-color="#C2623B"/>
<stop offset="1" stop-color="#BE5C36"/>
</radialGradient>
<radialGradient id="paint2_radial" cx="0" cy="0" r="1" gradientUnits="userSpaceOnUse" gradientTransform="translate(46.3555 21.3906) rotate(130.21) scale(43.1627 52.9396)">
<stop offset="0.000400641" stop-color="#FFEB78"/>
<stop offset="0.4939" stop-color="#FFE976"/>
<stop offset="0.7399" stop-color="#FFE36E"/>
<stop offset="0.9305" stop-color="#FFD861"/>
<stop offset="1" stop-color="#FFD25A"/>
</radialGradient>
<radialGradient id="paint3_radial" cx="0" cy="0" r="1" gradientUnits="userSpaceOnUse" gradientTransform="translate(53.3637 21.6417) scale(25.4719 25.4786)">
<stop stop-color="#FFCE3C"/>
<stop offset="0.3587" stop-color="#FFCC3B"/>
<stop offset="0.5655" stop-color="#FEC336"/>
<stop offset="0.7338" stop-color="#FEB52D"/>
<stop offset="0.8803" stop-color="#FCA221"/>
<stop offset="1" stop-color="#FB8B14"/>
</radialGradient>
<radialGradient id="paint4_radial" cx="0" cy="0" r="1" gradientUnits="userSpaceOnUse" gradientTransform="translate(6.01584 12.9838) scale(24.4901 24.4966)">
<stop stop-color="#FFEB78"/>
<stop offset="0.4376" stop-color="#FFDA5B"/>
<stop offset="0.9993" stop-color="#FFC73A"/>
</radialGradient>
<radialGradient id="paint5_radial" cx="0" cy="0" r="1" gradientUnits="userSpaceOnUse" gradientTransform="translate(19.2929 6.58568) scale(12.212 12.2151)">
<stop stop-color="#FFEB78"/>
<stop offset="0.1823" stop-color="#FFE066"/>
<stop offset="0.4855" stop-color="#FFD24E"/>
<stop offset="0.7658" stop-color="#FFCA3F"/>
<stop offset="0.9993" stop-color="#FFC73A"/>
</radialGradient>
<radialGradient id="paint6_radial" cx="0" cy="0" r="1" gradientUnits="userSpaceOnUse" gradientTransform="translate(40.8025 38.7883) scale(15.9166 15.9208)">
<stop stop-color="#F96446"/>
<stop offset="0.000539303" stop-color="#F96446"/>
<stop offset="0.3059" stop-color="#F75246"/>
<stop offset="0.6293" stop-color="#F64746"/>
<stop offset="1" stop-color="#F64446"/>
</radialGradient>
</defs>
</svg>
