<svg width="1529" height="1105" viewBox="0 0 1529 1105" fill="none" xmlns="http://www.w3.org/2000/svg">
<circle cx="1516" cy="1092" r="13" fill="#F2F4F2"/>
<circle cx="1505" cy="875" r="11" fill="#F2F4F2"/>
<circle cx="1207" cy="116" r="9" fill="#F2F4F2"/>
<circle cx="200" cy="45" r="9" fill="#FBEADF"/>
<circle cx="7.5" cy="426.5" r="7.5" fill="#FBEADF"/>
<path d="M1386.59 32.9098L1386.58 32.9209L1386.57 32.9321L1374.8 44.7067L1373.64 45.8663L1372.21 47.2936L1366.95 52.5565C1364.36 55.1478 1360.24 55.1478 1357.65 52.5565L1350.69 45.5987L1348.95 47.3432L1350.69 45.5987L1349.89 44.7959L1349.89 44.7959L1349.35 44.2607L1349.35 44.2607L1349 43.9039L1349 43.9039L1338.39 33.2889C1338.17 33.0745 1338 32.8537 1337.73 32.4862C1337.51 32.1972 1337.42 32.0617 1337.34 31.887L1337.27 31.7478L1337.19 31.6292C1337.19 31.6227 1337.18 31.6075 1337.17 31.5802C1337.15 31.5525 1337.14 31.5297 1337.13 31.4913C1337.12 31.4772 1337.11 31.4609 1337.1 31.4415C1337.09 31.4005 1337.06 31.3323 1337.02 31.255C1336 28.8494 1336.49 25.8778 1338.39 23.9787L1347.3 15.0585L1348.91 13.4529L1348.91 13.4529L1349.09 13.2745L1349.09 13.2745L1354.17 8.18999L1357.91 4.44351C1358.67 3.68755 1359.56 3.16781 1360.56 2.82961C1361.26 2.62259 1361.98 2.5 1362.65 2.5C1363.45 2.5 1364.23 2.63402 1364.92 2.8846C1365.57 3.12026 1366.2 3.483 1366.9 4.03205C1367.07 4.18658 1367.22 4.29893 1367.29 4.35239C1367.3 4.35647 1367.3 4.3602 1367.31 4.36358C1367.32 4.37554 1367.34 4.38479 1367.34 4.39169L1375.06 12.1149L1375.51 12.5609L1377.28 10.7934L1375.51 12.5609L1379.88 16.9318L1381.13 18.1806L1382.9 16.4131L1381.13 18.1806L1382.2 19.251L1386.48 23.5327C1389.19 26.2424 1389.12 30.4399 1386.59 32.9098ZM1367.31 4.35431L1367.31 4.35517C1367.31 4.35489 1367.31 4.3546 1367.31 4.35431L1369.07 2.59531L1367.31 4.35431Z" stroke="#B9DCF2" stroke-width="5"/>
<path d="M1100.45 1017.98L1100.45 1017.98L1099.93 1017.46L1099.93 1017.46L1099.59 1017.11L1099.59 1017.11L1099.35 1016.88L1099.35 1016.88L1092.47 1009.99C1092.38 1009.9 1092.3 1009.8 1092.12 1009.56L1090.12 1011.06L1092.12 1009.56C1092 1009.4 1091.98 1009.36 1091.95 1009.31L1091.88 1009.17L1091.84 1009.1L1091.83 1009.09L1091.82 1009.06C1091.81 1009.04 1091.8 1009.01 1091.78 1008.97C1091.78 1008.96 1091.77 1008.95 1091.76 1008.93C1091.24 1007.68 1091.51 1006.15 1092.47 1005.19L1098.26 999.395L1099.3 998.353L1099.3 998.353L1099.41 998.237L1099.41 998.237L1102.71 994.936L1105.14 992.505C1105.52 992.124 1105.98 991.854 1106.5 991.673C1106.89 991.56 1107.27 991.5 1107.6 991.5C1108.02 991.5 1108.43 991.571 1108.77 991.697C1109.08 991.809 1109.41 991.988 1109.79 992.289C1109.91 992.396 1110.02 992.475 1110.07 992.515L1115.04 997.484L1115.33 997.774L1118.16 1000.61L1118.97 1001.42L1118.97 1001.42L1119.67 1002.12L1119.67 1002.12L1122.44 1004.9C1123.87 1006.32 1123.81 1008.49 1122.53 1009.73L1122.51 1009.75L1122.5 1009.76L1114.86 1017.4L1114.11 1018.15L1113.18 1019.08L1114.82 1020.71L1113.18 1019.08L1109.77 1022.5C1108.43 1023.83 1106.31 1023.83 1104.97 1022.5L1100.45 1017.98ZM1091.86 1009.14C1091.86 1009.14 1091.85 1009.14 1091.85 1009.14C1091.85 1009.14 1091.86 1009.14 1091.86 1009.14ZM1110.12 992.554C1110.12 992.554 1110.12 992.553 1110.12 992.551C1110.12 992.553 1110.12 992.554 1110.12 992.554Z" stroke="#FFC43A" stroke-width="5"/>
</svg>
