<svg width="1721" height="259" viewBox="0 0 1721 259" fill="none" xmlns="http://www.w3.org/2000/svg">
<path d="M0 105.964L218 178.964H464L814 51.9639L1068 13.9639L1349 62.0849L1545 145.964L1720 241.964V257.964H0V105.964Z" fill="white"/>
<path fill-rule="evenodd" clip-rule="evenodd" d="M0.00195312 89.8395V121.735C286.514 263.905 498.888 188.611 713.556 112.505C784.412 87.3837 855.519 62.1739 929.625 44.6669C1176.82 -13.733 1564 162.756 1720 258.089L1719.99 226.46C1563.99 131.125 1230 -50.0348 929.625 13.0419C850.035 29.7552 774.127 56.2718 698.448 82.7089C488.472 156.059 280.251 228.796 0.00195312 89.8395Z" fill="#FBEADF"/>
</svg>
