<svg width="1720" height="881" viewBox="0 0 1720 881" fill="none" xmlns="http://www.w3.org/2000/svg">
<path opacity="0.2" d="M1787 173.595C1472 154.095 1101 107.596 1161 21.5795C1221 -64.437 1336.5 149.084 876 348.084C516.973 503.233 78.5 423.751 -94 348.084" stroke="url(#paint0_linear)" stroke-width="3"/>
<path d="M1666.59 195.91L1666.58 195.921L1666.57 195.932L1654.8 207.707L1653.64 208.866L1652.21 210.294L1646.95 215.556C1644.36 218.148 1640.24 218.148 1637.65 215.556L1630.69 208.599L1628.95 210.343L1630.69 208.599L1629.89 207.796L1629.89 207.796L1629.35 207.261L1629.35 207.261L1629 206.904L1629 206.904L1618.39 196.289C1618.17 196.074 1618 195.854 1617.73 195.486C1617.51 195.197 1617.42 195.062 1617.34 194.887L1617.27 194.748L1617.19 194.629C1617.19 194.623 1617.18 194.607 1617.17 194.58C1617.15 194.552 1617.14 194.53 1617.13 194.491C1617.12 194.477 1617.11 194.461 1617.1 194.442C1617.09 194.4 1617.06 194.332 1617.02 194.255C1616 191.849 1616.49 188.878 1618.39 186.979L1627.3 178.059L1628.91 176.453L1628.91 176.453L1629.09 176.274L1629.09 176.274L1634.17 171.19L1637.91 167.444C1638.67 166.688 1639.56 166.168 1640.56 165.83C1641.26 165.623 1641.98 165.5 1642.65 165.5C1643.45 165.5 1644.23 165.634 1644.92 165.885C1645.57 166.12 1646.2 166.483 1646.9 167.032C1647.07 167.187 1647.22 167.299 1647.29 167.352C1647.3 167.356 1647.3 167.36 1647.31 167.364C1647.32 167.376 1647.34 167.385 1647.34 167.392L1655.06 175.115L1655.51 175.561L1657.28 173.793L1655.51 175.561L1659.88 179.932L1661.13 181.181L1662.9 179.413L1661.13 181.181L1662.2 182.251L1666.48 186.533C1669.19 189.242 1669.12 193.44 1666.59 195.91ZM1647.31 167.354L1647.31 167.355C1647.31 167.355 1647.31 167.355 1647.31 167.354L1649.07 165.595L1647.31 167.354Z" stroke="#B9DCF2" stroke-width="5"/>
<circle cx="1006" cy="874" r="7" fill="#FFE874"/>
<circle cx="1545" cy="509" r="11" fill="#E6EDED"/>
<path d="M194.455 717.979L194.455 717.979L193.934 717.458L193.934 717.458L193.586 717.11L193.586 717.11L193.355 716.879L193.355 716.879L186.467 709.988C186.378 709.899 186.302 709.804 186.12 709.561L184.12 711.061L186.12 709.561C185.997 709.398 185.976 709.356 185.951 709.306L185.881 709.167L185.838 709.103L185.832 709.089L185.819 709.059C185.81 709.038 185.796 709.007 185.781 708.973C185.775 708.96 185.769 708.946 185.762 708.931C185.241 707.683 185.505 706.147 186.467 705.185L192.255 699.395L193.297 698.353L193.297 698.353L193.413 698.237L193.413 698.237L196.712 694.936L199.143 692.505C199.524 692.124 199.975 691.854 200.504 691.673C200.89 691.56 201.268 691.5 201.6 691.5C202.023 691.5 202.427 691.571 202.772 691.697C203.081 691.809 203.406 691.988 203.792 692.289C203.912 692.396 204.015 692.475 204.068 692.515L209.036 697.484L209.325 697.774L212.161 700.611L212.972 701.422L212.972 701.422L213.666 702.116L213.666 702.116L216.445 704.896C217.871 706.322 217.806 708.485 216.525 709.735L216.514 709.746L216.503 709.757L208.862 717.4L208.11 718.153L207.184 719.079L208.816 720.711L207.183 719.079L203.768 722.495C202.429 723.835 200.308 723.835 198.969 722.495L194.455 717.979ZM185.855 709.141C185.855 709.141 185.855 709.14 185.854 709.139C185.855 709.14 185.855 709.141 185.855 709.141ZM204.12 692.554C204.12 692.554 204.119 692.553 204.117 692.551C204.119 692.553 204.12 692.554 204.12 692.554Z" stroke="#FFC43A" stroke-width="5"/>
<defs>
<linearGradient id="paint0_linear" x1="1557.5" y1="158.634" x2="-18.5007" y2="418.596" gradientUnits="userSpaceOnUse">
<stop stop-color="#C58764" stop-opacity="0"/>
<stop offset="0.240363" stop-color="#C58764"/>
<stop offset="0.925308" stop-color="#C58764" stop-opacity="0"/>
</linearGradient>
</defs>
</svg>
