<svg width="127" height="162" viewBox="0 0 127 162" fill="none" xmlns="http://www.w3.org/2000/svg">
<path d="M117.625 106.008L93.8776 129.764L91.5388 132.103L88.6603 134.983L78.0459 145.601C70.8497 152.8 59.3357 152.8 52.1395 145.601L38.1068 131.563L36.4877 129.944L35.4082 128.864L34.6886 128.144L13.2798 106.728C12.5602 106.008 12.0205 105.288 11.4808 104.568C10.9411 103.848 10.5813 103.308 10.2215 102.588C9.86165 102.049 9.68172 101.509 9.50182 101.149C6.62333 94.4898 7.88268 86.2113 13.2798 80.8122L31.2704 62.8153L34.5087 59.5759L34.8685 59.216L45.1231 48.9577L52.6792 41.3991C54.838 39.2394 57.3567 37.7997 60.0553 36.8998C61.8544 36.3599 63.8333 36 65.8123 36C67.9712 36 70.13 36.3599 72.109 37.0798C74.0879 37.7997 75.887 38.8795 77.6861 40.3193C78.0459 40.6792 78.4057 40.8592 78.7655 41.2191L94.4173 56.8764L95.3168 57.7762L104.132 66.5947L106.651 69.1142L108.81 71.2739L117.445 79.9124C124.821 87.2911 124.821 98.989 117.625 106.008Z" fill="#FBEADF"/>
<circle cx="116" cy="40" r="11" fill="#F2F4F2"/>
<circle cx="9" cy="153" r="9" fill="#F2F4F2"/>
<path d="M80.5904 32.9098L80.579 32.9209L80.5678 32.9321L68.7973 44.7067L67.6381 45.8663L66.2114 47.2936L60.9503 52.5565C58.3599 55.1478 54.2363 55.1478 51.6459 52.5565L44.6906 45.5987L42.9455 47.3432L44.6906 45.5987L43.8881 44.7959L43.888 44.7959L43.3531 44.2607L43.353 44.2607L42.9963 43.9039L42.9963 43.9039L32.385 33.2889C32.1707 33.0745 32.001 32.8537 31.7255 32.4862C31.5088 32.1972 31.4246 32.0617 31.3373 31.887L31.2677 31.7478L31.1887 31.6292C31.1853 31.6227 31.1777 31.6075 31.1653 31.5802C31.1527 31.5525 31.1428 31.5297 31.1262 31.4913C31.12 31.4772 31.113 31.4609 31.1045 31.4415C31.0866 31.4005 31.0569 31.3323 31.0203 31.255C30.0018 28.8494 30.4866 25.8778 32.385 23.9787L41.3021 15.0585L42.9072 13.4529L42.9072 13.4529L43.0855 13.2745L43.0855 13.2745L48.1682 8.18999L51.9134 4.44351C52.6691 3.68755 53.5578 3.16781 54.5565 2.82961C55.2569 2.62259 55.979 2.5 56.6548 2.5C57.4533 2.5 58.2323 2.63402 58.9211 2.8846C59.569 3.12026 60.2031 3.483 60.9015 4.03205C61.0704 4.18658 61.2207 4.29893 61.2922 4.35239C61.2977 4.35647 61.3027 4.3602 61.3072 4.36358C61.3231 4.37554 61.3353 4.38479 61.3444 4.39169L69.0648 12.1149L69.5107 12.5609L71.2788 10.7934L69.5107 12.5609L73.8801 16.9318L75.1284 18.1806L76.8965 16.4131L75.1284 18.1806L76.1985 19.251L80.4787 23.5327C83.1874 26.2424 83.1227 30.4399 80.5904 32.9098ZM61.307 4.35431L61.3078 4.35517C61.3076 4.35489 61.3073 4.3546 61.307 4.35431L63.0666 2.59531L61.307 4.35431Z" stroke="white" stroke-width="5"/>
</svg>
