<svg width="22" height="160" viewBox="0 0 22 160" fill="none" xmlns="http://www.w3.org/2000/svg">
<path fill-rule="evenodd" clip-rule="evenodd" d="M7.28 139H13.72C19.6 139 21 140.4 21 146.28V152.72C21 158.6 19.6 160 13.72 160H7.28C1.4 160 0 158.6 0 152.72V146.28C0 140.4 1.4 139 7.28 139Z" fill="#5181B8"/>
<path fill-rule="evenodd" clip-rule="evenodd" d="M17.1968 146.234C17.2941 145.91 17.1968 145.672 16.7337 145.672H15.2024C14.813 145.672 14.6337 145.878 14.5363 146.105C14.5363 146.105 13.7576 148.003 12.6544 149.236C12.2975 149.593 12.1353 149.706 11.9406 149.706C11.8433 149.706 11.7024 149.593 11.7024 149.268V146.234C11.7024 145.845 11.5894 145.672 11.2649 145.672H8.85867C8.61542 145.672 8.46908 145.852 8.46908 146.024C8.46908 146.393 9.02055 146.478 9.07742 147.516V149.771C9.07742 150.265 8.98817 150.355 8.79349 150.355C8.27439 150.355 7.01177 148.448 6.26277 146.267C6.11599 145.843 5.96877 145.672 5.57743 145.672H4.04618C3.60868 145.672 3.52118 145.878 3.52118 146.105C3.52118 146.51 4.04038 148.522 5.93836 151.182C7.20372 152.999 8.98642 153.984 10.6087 153.984C11.5821 153.984 11.7024 153.765 11.7024 153.389V152.015C11.7024 151.578 11.7946 151.491 12.1028 151.491C12.33 151.491 12.7193 151.604 13.6279 152.48C14.666 153.518 14.8371 153.984 15.4212 153.984H16.9524C17.3899 153.984 17.6087 153.765 17.4824 153.334C17.3444 152.903 16.8487 152.279 16.1909 151.539C15.8341 151.117 15.2987 150.663 15.1366 150.436C14.9094 150.144 14.9743 150.014 15.1366 149.755C15.1366 149.755 17.0021 147.127 17.1968 146.234Z" fill="white"/>
<path d="M7.08723 102.63C7.08723 100.673 8.67314 99.0864 10.63 99.0864C12.5869 99.0864 14.1736 100.673 14.1736 102.63C14.1736 104.587 12.5869 106.174 10.63 106.174C8.67314 106.174 7.08723 104.587 7.08723 102.63ZM5.17162 102.63C5.17162 105.645 7.61533 108.088 10.63 108.088C13.6447 108.088 16.0884 105.645 16.0884 102.63C16.0884 99.6153 13.6447 97.1716 10.63 97.1716C7.61533 97.1716 5.17171 99.6152 5.17171 102.63H5.17162ZM15.0289 96.9552C15.0288 97.2075 15.1036 97.4541 15.2436 97.664C15.3837 97.8738 15.5829 98.0374 15.8159 98.134C16.049 98.2307 16.3054 98.256 16.5529 98.2069C16.8004 98.1578 17.0277 98.0364 17.2062 97.8581C17.3846 97.6797 17.5062 97.4525 17.5555 97.2051C17.6049 96.9576 17.5797 96.7012 17.4832 96.468C17.3868 96.2349 17.2234 96.0356 17.0137 95.8954C16.8039 95.7551 16.5573 95.6802 16.3051 95.6801H16.3045C15.9664 95.6803 15.6421 95.8146 15.4029 96.0537C15.1637 96.2928 15.0292 96.617 15.0289 96.9552ZM6.33548 111.283C5.2991 111.235 4.73579 111.063 4.36145 110.917C3.86515 110.724 3.51105 110.494 3.13874 110.122C2.76644 109.75 2.53598 109.396 2.34362 108.9C2.19769 108.526 2.02506 107.962 1.97794 106.926C1.92641 105.805 1.91612 105.469 1.91612 102.63C1.91612 99.7915 1.92726 99.4558 1.97794 98.3344C2.02514 97.298 2.19905 96.7356 2.34362 96.3603C2.53683 95.864 2.76695 95.5099 3.13874 95.1376C3.51054 94.7653 3.8643 94.5349 4.36145 94.3425C4.73562 94.1966 5.2991 94.024 6.33548 93.9768C7.45597 93.9253 7.79255 93.915 10.63 93.915C13.4674 93.915 13.8044 93.926 14.9258 93.977C15.9622 94.0242 16.5245 94.1981 16.8998 94.3427C17.3961 94.535 17.7502 94.766 18.1225 95.1378C18.4948 95.5096 18.7244 95.8642 18.9177 96.3605C19.0636 96.7347 19.2362 97.2982 19.2833 98.3345C19.3349 99.456 19.3451 99.7916 19.3451 102.63C19.3451 105.469 19.3349 105.805 19.2833 106.926C19.2361 107.963 19.0626 108.526 18.9177 108.9C18.7244 109.396 18.4943 109.751 18.1225 110.122C17.7507 110.493 17.3961 110.724 16.8998 110.917C16.5257 111.063 15.9622 111.236 14.9258 111.283C13.8053 111.334 13.4687 111.345 10.63 111.345C7.79128 111.345 7.45563 111.334 6.33548 111.283V111.283ZM6.24746 92.0644C5.11584 92.1159 4.34257 92.2953 3.66726 92.5581C2.96832 92.8295 2.37585 93.1935 1.78422 93.7842C1.1926 94.3749 0.82948 94.9675 0.558117 95.6673C0.295344 96.343 0.11591 97.1158 0.0643753 98.2475C0.0119907 99.3809 0 99.7432 0 102.63C0 105.517 0.0119907 105.879 0.0643753 107.013C0.11591 108.144 0.295344 108.917 0.558117 109.593C0.82948 110.292 1.19269 110.885 1.78422 111.476C2.37576 112.066 2.96747 112.43 3.66726 112.702C4.34384 112.965 5.11584 113.144 6.24746 113.196C7.38147 113.247 7.74323 113.26 10.63 113.26C13.5168 113.26 13.8791 113.248 15.0125 113.196C16.1442 113.144 16.917 112.965 17.5927 112.702C18.2917 112.43 18.8841 112.066 19.4758 111.476C20.0674 110.885 20.4298 110.292 20.7019 109.593C20.9647 108.917 21.1449 108.144 21.1956 107.013C21.2472 105.878 21.2591 105.517 21.2591 102.63C21.2591 99.7432 21.2472 99.3809 21.1956 98.2475C21.1441 97.1158 20.9647 96.3426 20.7019 95.6673C20.4298 94.9683 20.0665 94.3758 19.4758 93.7842C18.8851 93.1926 18.2917 92.8295 17.5936 92.5581C16.917 92.2953 16.1442 92.1151 15.0134 92.0644C13.8798 92.0126 13.5176 92 10.6313 92C7.74493 92 7.3819 92.012 6.24789 92.0644" fill="#F75047"/>
<path d="M12.6762 65.9999V56.8769H15.7088L16.1628 53.3216H12.6762V51.0516C12.6762 50.0222 12.9594 49.3207 14.4213 49.3207L16.2857 49.3198V46.1399C15.9631 46.0968 14.8564 46 13.5689 46C10.8807 46 9.04039 47.6568 9.04039 50.6996V53.3217H6V56.877H9.04029V66L12.6762 65.9999Z" fill="#0085FF"/>
<path d="M4.97246 19.9995V6.50509H0.276779V19.9995H4.97246ZM2.6256 4.66297C4.26274 4.66297 5.28197 3.62675 5.28197 2.33178C5.25132 1.00729 4.26274 0 2.65673 0C1.04963 0 0 1.00729 0 2.33166C0 3.62663 1.01886 4.66285 2.59483 4.66285L2.6256 4.66297ZM7.57158 19.9995H12.2669V12.4644C12.2669 12.0617 12.2975 11.6578 12.4216 11.3701C12.7609 10.564 13.5335 9.72953 14.831 9.72953C16.5296 9.72953 17.2096 10.9669 17.2096 12.7812V19.9995H21.9048V12.2622C21.9048 8.11749 19.5885 6.18872 16.4992 6.18872C13.9664 6.18872 12.854 7.54095 12.236 8.46195H12.2673V6.50556H7.57183C7.63312 7.77149 7.57158 19.9995 7.57158 19.9995Z" fill="#006699"/>
</svg>
