<svg width="84" height="353" viewBox="0 0 84 353" fill="none" xmlns="http://www.w3.org/2000/svg">
<path d="M77.3999 319.064C76.6438 318.586 52.3324 303.214 51.5832 302.74L48.1761 295.508C50.647 294.344 51.7103 291.386 50.5463 288.916C49.3823 286.445 46.4252 285.381 43.9542 286.545L29.0171 293.582C26.5462 294.746 25.4829 297.703 26.6469 300.174C27.8109 302.645 30.7681 303.708 33.239 302.544L36.6461 309.777L32.7928 340.077C31.9701 346.547 38.6015 351.366 44.5009 348.587L76.506 333.511C82.4063 330.731 82.9116 322.549 77.3999 319.064ZM39.9828 309.716C40.0223 309.405 39.9724 309.089 39.8385 308.804L36.2265 301.137C37.0514 300.748 37.4052 299.764 37.0166 298.939C36.628 298.114 35.6441 297.761 34.8192 298.149L31.8318 299.557C31.0082 299.945 30.0224 299.59 29.6344 298.766C29.2465 297.943 29.6009 296.957 30.4245 296.569L45.3616 289.533C46.1853 289.145 47.171 289.499 47.559 290.323C47.947 291.146 47.5925 292.132 46.7689 292.52L43.7815 293.927C42.9566 294.316 42.6028 295.3 42.9914 296.125C43.38 296.95 44.3639 297.303 45.1888 296.915L48.8008 304.583C48.9347 304.867 49.1466 305.107 49.4121 305.274L56.4796 309.743C52.6533 310.637 49.2638 313.034 47.1483 316.543L43.9467 321.853C42.5265 324.209 40.3549 325.946 37.8082 326.817L39.9828 309.716ZM75.0987 330.523L43.0936 345.6C39.5535 347.267 35.5751 344.375 36.0688 340.494L37.3559 330.372C38.4138 330.132 39.433 329.782 40.3979 329.327C43.0156 328.094 45.2375 326.107 46.7744 323.558L49.9761 318.248C52.3298 314.344 56.7093 312.209 61.2129 312.736L75.6349 321.855C78.9427 323.947 78.6383 328.856 75.0987 330.523Z" fill="#F2F3F1"/>
<path d="M44.5043 330.334C42.0334 331.498 40.9702 334.455 42.1341 336.926C43.2981 339.397 46.2553 340.46 48.7262 339.296C51.1971 338.132 52.2604 335.175 51.0964 332.704C49.9324 330.233 46.9753 329.17 44.5043 330.334ZM47.3189 336.309C46.4953 336.697 45.5095 336.343 45.1215 335.519C44.7336 334.695 45.088 333.71 45.9116 333.322C46.7352 332.934 47.721 333.288 48.109 334.112C48.497 334.935 48.1426 335.921 47.3189 336.309Z" fill="#F2F3F1"/>
<path d="M56.6277 317.323C54.1568 318.487 53.0936 321.444 54.2575 323.915C55.4215 326.386 58.3787 327.449 60.8496 326.285C63.3205 325.121 64.3838 322.164 63.2198 319.693C62.0558 317.222 59.0987 316.159 56.6277 317.323ZM59.4423 323.298C58.6187 323.686 57.633 323.332 57.245 322.508C56.857 321.684 57.2114 320.699 58.035 320.311C58.8587 319.923 59.8444 320.277 60.2324 321.101C60.6204 321.924 60.2661 322.91 59.4423 323.298Z" fill="#F2F3F1"/>
<path d="M56.282 332.087C57.1069 331.698 57.4607 330.715 57.072 329.89C56.6834 329.065 55.6996 328.711 54.8747 329.1C54.0497 329.488 53.696 330.472 54.0846 331.297C54.4732 332.122 55.457 332.476 56.282 332.087Z" fill="#F2F3F1"/>
<path d="M68.2311 326.457C69.056 326.069 69.4098 325.085 69.0211 324.26C68.6325 323.435 67.6487 323.081 66.8238 323.47C65.9988 323.859 65.6451 324.842 66.0337 325.667C66.4223 326.492 67.4061 326.846 68.2311 326.457Z" fill="#F2F3F1"/>
<path d="M63.6636 332.26C64.4885 331.872 64.8423 330.888 64.4536 330.063C64.065 329.238 63.0812 328.884 62.2563 329.273C61.4313 329.662 61.0776 330.645 61.4662 331.47C61.8548 332.295 62.8386 332.649 63.6636 332.26Z" fill="#F2F3F1"/>
<circle cx="42" cy="219" r="11" fill="#F2F4F2"/>
<path d="M61.2518 116.032L61.2457 116.046L61.2397 116.061L54.9792 131.488L54.3626 133.007L53.6038 134.877L50.8055 141.773C49.4277 145.168 45.6293 146.773 42.2346 145.394L33.1199 141.691L32.1912 143.977L33.1199 141.691L32.0682 141.264L32.0682 141.264L31.3671 140.979L31.367 140.979L30.8996 140.789L30.8996 140.789L16.9939 135.14C16.7131 135.026 16.4708 134.889 16.074 134.658C15.7619 134.476 15.6317 134.384 15.4832 134.257L15.3649 134.155L15.2461 134.077C15.2404 134.072 15.2274 134.061 15.2054 134.041C15.183 134.02 15.165 134.003 15.1347 133.974C15.1236 133.964 15.1107 133.951 15.0954 133.937C15.063 133.906 15.009 133.855 14.9452 133.798C13.0709 131.978 12.3611 129.052 13.3708 126.564L18.1136 114.877L18.9673 112.773L18.9674 112.773L19.0622 112.539L19.0622 112.539L21.7656 105.878L23.7576 100.969C24.1595 99.9786 24.7759 99.154 25.5643 98.4539C26.1289 97.9906 26.7464 97.5966 27.3689 97.3337C28.1044 97.0229 28.8742 96.8432 29.6062 96.806C30.2947 96.771 31.02 96.8583 31.877 97.0923C32.0928 97.1689 32.275 97.2139 32.3616 97.2353C32.3683 97.237 32.3743 97.2385 32.3798 97.2398C32.3991 97.2446 32.4139 97.2484 32.4249 97.2513L42.5424 101.361L43.1266 101.599L44.0675 99.2823L43.1266 101.599L48.8525 103.925L50.4885 104.589L51.4294 102.273L50.4885 104.589L51.8908 105.159L57.4998 107.437C61.0495 108.879 62.6234 112.771 61.2518 116.032ZM32.376 97.2314L32.3771 97.2318C32.3767 97.2317 32.3763 97.2315 32.376 97.2314L33.3124 94.9263L32.376 97.2314Z" stroke="#B9DCF2" stroke-width="5"/>
<circle cx="35.5" cy="17.5" r="17.5" fill="#F2F4F2"/>
</svg>
