<svg width="137" height="154" viewBox="0 0 137 154" fill="none" xmlns="http://www.w3.org/2000/svg">
<path d="M109.625 101.008L85.8776 124.764L83.5388 127.103L80.6603 129.983L70.0459 140.601C62.8497 147.8 51.3357 147.8 44.1395 140.601L30.1068 126.563L28.4877 124.944L27.4082 123.864L26.6886 123.144L5.27985 101.728C4.56022 101.008 4.02051 100.288 3.48079 99.5681C2.94107 98.8482 2.58127 98.3083 2.22146 97.5884C1.86165 97.0485 1.68172 96.5086 1.50182 96.1487C-1.37667 89.4898 -0.117322 81.2113 5.27985 75.8122L23.2704 57.8153L26.5087 54.5759L26.8685 54.216L37.1231 43.9577L44.6792 36.3991C46.838 34.2394 49.3567 32.7997 52.0553 31.8998C53.8544 31.3599 55.8333 31 57.8123 31C59.9712 31 62.13 31.3599 64.109 32.0798C66.0879 32.7997 67.887 33.8795 69.6861 35.3193C70.0459 35.6792 70.4057 35.8592 70.7655 36.2191L86.4173 51.8764L87.3168 52.7762L96.1322 61.5947L98.6509 64.1142L100.81 66.2739L109.445 74.9124C116.821 82.2911 116.821 93.989 109.625 101.008Z" fill="#FFF9C0"/>
<circle cx="12" cy="145" r="9" fill="#F2F4F2"/>
<circle cx="87" cy="6" r="6" fill="#0085FF"/>
<circle cx="115" cy="86" r="19.5" stroke="white" stroke-width="5"/>
</svg>
