<svg width="319" height="692" viewBox="0 0 319 692" fill="none" xmlns="http://www.w3.org/2000/svg">
<path opacity="0.3" d="M138 2H317V331" stroke="#D5D9D8" stroke-width="4" stroke-linecap="round"/>
<path opacity="0.3" d="M29.4649 686.874C28.3757 687.058 27.6418 688.09 27.8256 689.179C28.0095 690.269 29.0415 691.003 30.1306 690.819L29.4649 686.874ZM283.851 483.723C284.25 482.693 283.738 481.534 282.708 481.135C281.678 480.736 280.52 481.248 280.121 482.278L283.851 483.723ZM280.121 482.278C279.635 483.531 279.142 484.781 278.642 486.028L282.353 487.518C282.86 486.257 283.359 484.991 283.851 483.723L280.121 482.278ZM275.547 493.468C274.484 495.936 273.392 498.39 272.27 500.829L275.904 502.501C277.039 500.032 278.145 497.548 279.221 495.049L275.547 493.468ZM268.812 508.109C267.629 510.522 266.417 512.92 265.177 515.302L268.724 517.15C269.98 514.739 271.207 512.312 272.404 509.87L268.812 508.109ZM261.366 522.402C260.067 524.754 258.739 527.089 257.383 529.407L260.835 531.427C262.208 529.081 263.552 526.717 264.867 524.337L261.366 522.402ZM253.228 536.313C251.815 538.598 250.374 540.866 248.906 543.115L252.256 545.301C253.742 543.025 255.2 540.73 256.63 538.417L253.228 536.313ZM244.419 549.809C242.896 552.022 241.345 554.216 239.769 556.391L243.007 558.739C244.603 556.537 246.172 554.316 247.714 552.077L244.419 549.809ZM234.959 562.857C233.329 564.992 231.674 567.108 229.992 569.203L233.112 571.707C234.814 569.586 236.489 567.445 238.139 565.283L234.959 562.857ZM224.871 575.426C223.139 577.479 221.382 579.511 219.6 581.521L222.593 584.175C224.397 582.14 226.176 580.083 227.929 578.005L224.871 575.426ZM214.18 587.486C212.349 589.451 210.495 591.394 208.616 593.315L211.475 596.112C213.377 594.168 215.254 592.201 217.107 590.212L214.18 587.486ZM202.91 599.005C200.986 600.878 199.038 602.728 197.066 604.554L199.785 607.489C201.78 605.64 203.752 603.767 205.7 601.872L202.91 599.005ZM191.087 609.958C189.073 611.734 187.037 613.485 184.977 615.213L187.548 618.277C189.632 616.529 191.694 614.756 193.732 612.959L191.087 609.958ZM178.741 620.314C176.642 621.988 174.521 623.637 172.379 625.261L174.795 628.448C176.964 626.805 179.11 625.136 181.235 623.441L178.741 620.314ZM165.897 630.049C163.718 631.617 161.518 633.159 159.297 634.675L161.553 637.979C163.801 636.444 166.028 634.883 168.233 633.296L165.897 630.049ZM152.588 639.135C150.336 640.593 148.063 642.024 145.77 643.428L147.859 646.839C150.18 645.418 152.481 643.969 154.761 642.494L152.588 639.135ZM138.845 647.552C136.522 648.896 134.18 650.213 131.819 651.503L133.736 655.013C136.126 653.708 138.497 652.375 140.849 651.014L138.845 647.552ZM124.702 655.275C122.317 656.502 119.913 657.7 117.492 658.87L119.232 662.472C121.684 661.287 124.117 660.074 126.531 658.832L124.702 655.275ZM110.193 662.287C107.749 663.394 105.287 664.472 102.808 665.522L104.367 669.205C106.877 668.143 109.369 667.051 111.843 665.93L110.193 662.287ZM95.3527 668.57C92.8592 669.553 90.349 670.508 87.8224 671.433L89.1975 675.189C91.7551 674.253 94.2962 673.286 96.8204 672.291L95.3527 668.57ZM80.2201 674.11C77.6791 674.969 75.1223 675.799 72.55 676.599L73.7379 680.419C76.3416 679.609 78.9297 678.769 81.5019 677.899L80.2201 674.11ZM64.832 678.895C62.2547 679.628 59.6625 680.331 57.0558 681.003L58.0547 684.876C60.693 684.196 63.3168 683.485 65.9255 682.743L64.832 678.895ZM49.2251 682.92C46.6138 683.526 43.9886 684.101 41.3497 684.646L42.1583 688.563C44.829 688.012 47.486 687.43 50.1289 686.817L49.2251 682.92ZM33.4441 686.178C32.1209 686.418 30.7945 686.65 29.4649 686.874L30.1306 690.819C31.4762 690.592 32.8185 690.357 34.1575 690.114L33.4441 686.178Z" fill="#D5D9D8"/>
</svg>
