<svg width="71" height="74" viewBox="0 0 71 74" fill="none" xmlns="http://www.w3.org/2000/svg">
<path d="M64.3999 40.064C63.6438 39.586 39.3324 24.214 38.5832 23.7403L35.1761 16.5076C37.647 15.3436 38.7103 12.3864 37.5463 9.91551C36.3823 7.44461 33.4252 6.38129 30.9542 7.54531L16.0171 14.5818C13.5462 15.7457 12.4829 18.7029 13.6469 21.1738C14.8109 23.6447 17.7681 24.708 20.239 23.544L23.6461 30.7768L19.7928 61.0771C18.9701 67.5473 25.6015 72.3662 31.5009 69.5872L63.506 54.5105C69.4063 51.7311 69.9116 43.5491 64.3999 40.064ZM26.9828 30.7163C27.0223 30.4048 26.9724 30.0885 26.8385 29.8044L23.2265 22.1367C24.0514 21.7481 24.4052 20.7643 24.0166 19.9393C23.628 19.1144 22.6441 18.7607 21.8192 19.1493L18.8318 20.5565C18.0082 20.9445 17.0224 20.5901 16.6344 19.7665C16.2465 18.9428 16.6009 17.9571 17.4245 17.5691L32.3616 10.5327C33.1853 10.1447 34.171 10.4991 34.559 11.3227C34.947 12.1464 34.5925 13.1321 33.7689 13.5201L30.7815 14.9274C29.9566 15.316 29.6028 16.2998 29.9914 17.1247C30.38 17.9497 31.3639 18.3034 32.1888 17.9148L35.8008 25.5825C35.9347 25.8666 36.1466 26.1066 36.4121 26.2745L43.4796 30.7432C39.6533 31.6369 36.2638 34.0337 34.1483 37.5426L30.9467 42.853C29.5265 45.2086 27.3549 46.9457 24.8082 47.8174L26.9828 30.7163ZM62.0987 51.5231L30.0936 66.5998C26.5535 68.2674 22.5751 65.3753 23.0688 61.4938L24.3559 51.3725C25.4138 51.1322 26.433 50.7819 27.3979 50.3274C30.0156 49.0942 32.2375 47.1075 33.7744 44.5583L36.9761 39.2479C39.3298 35.3441 43.7093 33.2089 48.2129 33.7363L62.6349 42.8553C65.9427 44.9465 65.6383 49.8557 62.0987 51.5231Z" fill="#F2F3F1"/>
<path d="M31.5043 51.3341C29.0334 52.4981 27.9702 55.4553 29.1341 57.9262C30.2981 60.3971 33.2553 61.4604 35.7262 60.2964C38.1971 59.1324 39.2604 56.1752 38.0964 53.7043C36.9324 51.2334 33.9753 50.1701 31.5043 51.3341ZM34.3189 57.309C33.4953 57.697 32.5095 57.3425 32.1215 56.5189C31.7336 55.6953 32.088 54.7095 32.9116 54.3216C33.7352 53.9336 34.721 54.288 35.109 55.1116C35.497 55.9353 35.1426 56.9209 34.3189 57.309Z" fill="#F2F3F1"/>
<path d="M43.6278 38.3231C41.1569 39.4871 40.0936 42.4443 41.2576 44.9152C42.4216 47.3861 45.3788 48.4494 47.8497 47.2854C50.3206 46.1214 51.3838 43.1642 50.2199 40.6933C49.0559 38.2225 46.0988 37.1591 43.6278 38.3231ZM46.4424 44.298C45.6187 44.686 44.633 44.3316 44.245 43.5079C43.857 42.6843 44.2115 41.6986 45.0351 41.3106C45.8587 40.9226 46.8445 41.277 47.2324 42.1006C47.6204 42.9243 47.2661 43.91 46.4424 44.298Z" fill="#F2F3F1"/>
<path d="M43.282 53.087C44.1069 52.6984 44.4607 51.7146 44.072 50.8896C43.6834 50.0647 42.6996 49.711 41.8747 50.0996C41.0497 50.4882 40.696 51.472 41.0846 52.2969C41.4732 53.1219 42.457 53.4756 43.282 53.087Z" fill="#F2F3F1"/>
<path d="M55.2311 47.4574C56.056 47.0688 56.4098 46.085 56.0211 45.26C55.6325 44.4351 54.6487 44.0813 53.8238 44.4699C52.9988 44.8586 52.6451 45.8423 53.0337 46.6673C53.4223 47.4922 54.4061 47.846 55.2311 47.4574Z" fill="#F2F3F1"/>
<path d="M50.6636 53.2603C51.4886 52.8717 51.8423 51.8879 51.4537 51.063C51.0651 50.238 50.0813 49.8843 49.2563 50.2729C48.4314 50.6615 48.0777 51.6453 48.4663 52.4703C48.8549 53.2952 49.8387 53.649 50.6636 53.2603Z" fill="#F2F3F1"/>
</svg>
