<svg width="75" height="75" viewBox="0 0 75 75" fill="none" xmlns="http://www.w3.org/2000/svg">
<path d="M61.4081 32.1872L61.4019 32.2018L61.396 32.2165L55.1355 47.6435L54.5189 49.1628L53.76 51.0328L50.9618 57.9282C49.584 61.3234 45.7855 62.928 42.3908 61.5491L33.2761 57.8465L32.3475 60.1326L33.2761 57.8464L32.2245 57.4193L32.2244 57.4192L31.5234 57.1344L31.5233 57.1344L31.0559 56.9446L31.0558 56.9445L17.1502 51.2957C16.8693 51.1816 16.6271 51.0443 16.2303 50.813C15.9182 50.6311 15.7879 50.5391 15.6395 50.4121L15.5212 50.3109L15.4023 50.2325C15.3966 50.2277 15.3837 50.2167 15.3616 50.1964C15.3393 50.1758 15.3213 50.1586 15.291 50.1298C15.2798 50.1191 15.267 50.1069 15.2517 50.0923C15.2192 50.0615 15.1653 50.0102 15.1015 49.9533C13.2272 48.1337 12.5173 45.2077 13.5271 42.7195L18.2699 31.0323L19.1236 28.9286L19.1236 28.9286L19.2185 28.6949L19.2185 28.6949L21.9219 22.0332L23.9138 17.1246C24.3158 16.1342 24.9322 15.3095 25.7205 14.6094C26.2851 14.1461 26.9026 13.7522 27.5251 13.4892C28.2607 13.1784 29.0304 12.9987 29.7625 12.9615C30.451 12.9265 31.1763 13.0138 32.0333 13.2478C32.249 13.3244 32.4312 13.3694 32.5179 13.3909C32.5245 13.3925 32.5306 13.394 32.536 13.3953C32.5554 13.4002 32.5702 13.4039 32.5812 13.4068L42.6986 17.5167L43.2829 17.754L44.2238 15.4379L43.2829 17.754L49.0088 20.08L50.6447 20.7446L51.5856 18.4284L50.6447 20.7446L52.047 21.3142L57.656 23.5927C61.2057 25.0347 62.7796 28.9265 61.4081 32.1872ZM32.5322 13.3869L32.5334 13.3873C32.533 13.3872 32.5326 13.387 32.5322 13.3869L33.4686 11.0818L32.5322 13.3869Z" stroke="#B9DCF2" stroke-width="5"/>
</svg>
