<svg width="1720" height="1538" viewBox="0 0 1720 1538" fill="none" xmlns="http://www.w3.org/2000/svg">
<circle opacity="0.3" cx="92.5" cy="334.5" r="332.5" stroke="#D5D9D8" stroke-width="4"/>
<ellipse opacity="0.4" cx="93" cy="334.5" rx="251" ry="250.5" fill="#FBEADF"/>
<path opacity="0.3" d="M-101 1536C-32 1451.33 155.2 1297.2 352 1358C598 1434 742 1553 979 1445C1216 1337 1229.82 1149 1457 1149C1681 1149 1641 1484 1821 1477" stroke="url(#paint0_linear)" stroke-width="4" stroke-linecap="round" stroke-linejoin="round" stroke-dasharray="8.8 8.8"/>
<circle opacity="0.1" cx="1734" cy="964" r="141" fill="#917AEB"/>
<rect x="1231" y="1114.4" width="19" height="19" rx="6" transform="rotate(-29.6591 1231 1114.4)" fill="#FFC0D0"/>
<circle cx="432" cy="89" r="18.5" stroke="#FFECA8" stroke-width="5"/>
<path opacity="0.2" d="M1916.5 633.539C1601.5 614.039 1504 522.43 1559 490.984C1614 459.539 1734.5 618.489 1274 817.489C914.973 972.638 476.5 893.155 304 817.489" stroke="url(#paint1_linear)" stroke-width="4"/>
<circle cx="807" cy="1050" r="11" fill="#F2F4F2"/>
<defs>
<linearGradient id="paint0_linear" x1="1565.28" y1="1243.93" x2="2.58252" y2="1215.68" gradientUnits="userSpaceOnUse">
<stop stop-color="#FF6331"/>
<stop offset="0.316058" stop-color="#FF6331" stop-opacity="0"/>
<stop offset="0.506202" stop-color="#FF6331" stop-opacity="0"/>
<stop offset="1" stop-color="#FF6331"/>
</linearGradient>
<linearGradient id="paint1_linear" x1="1955.5" y1="628.039" x2="379.5" y2="888" gradientUnits="userSpaceOnUse">
<stop stop-color="#C58764" stop-opacity="0"/>
<stop offset="0.167571" stop-color="#C58764"/>
<stop offset="0.400327" stop-color="#C58764" stop-opacity="0"/>
</linearGradient>
</defs>
</svg>
