<svg width="1720" height="409" viewBox="0 0 1720 409" fill="none" xmlns="http://www.w3.org/2000/svg">
<g clip-path="url(#clip0)">
<path fill-rule="evenodd" clip-rule="evenodd" d="M835.279 119.884C533.675 13.0753 258.363 -84.422 -99.4982 119.741C-569.202 387.711 -512.308 1403.6 -444.239 1948.41C-498.006 1400.09 -519.255 464.058 -89 173.999C277.443 -73.0403 564.765 44.0861 870.714 168.805C1061.92 246.748 1260.39 327.657 1490 324.499C1757.56 320.819 1971.02 204.57 2156.35 103.64C2384.55 -20.6381 2570.11 -121.691 2761.5 39.2397C2956.7 203.369 3003.18 538.788 2979.55 909.896C3025.02 500.701 2990.94 116.613 2761.5 -54.7591C2588.33 -184.101 2414.79 -89.8649 2197.23 28.2728C2003.28 133.593 1774.34 257.909 1479.5 259.741C1234.5 261.263 1029.44 188.644 835.279 119.884ZM990.82 1849.15L944 1831L895.95 1850.02C926.878 1848.72 958.545 1848.47 990.82 1849.15Z" fill="url(#paint0_linear)"/>
<path d="M-89 321.585C516.214 -154.87 901.104 347.858 1490 402.085C1573.13 409.74 1651.22 403.739 1725 388.604" stroke="white" stroke-width="4"/>
</g>
<defs>
<linearGradient id="paint0_linear" x1="1143" y1="245" x2="1115" y2="1737" gradientUnits="userSpaceOnUse">
<stop stop-color="#FBEADF"/>
<stop offset="1" stop-color="#FBFDFE" stop-opacity="0"/>
</linearGradient>
<clipPath id="clip0">
<rect width="1720" height="409" fill="white"/>
</clipPath>
</defs>
</svg>
