<svg width="328" height="207" viewBox="0 0 328 207" fill="none" xmlns="http://www.w3.org/2000/svg">
<path opacity="0.3" d="M305.899 32.2505L305.889 32.2594L305.881 32.2683L214.401 123.78L205.392 132.793L194.303 143.885L153.414 184.788C126.474 211.737 83.3874 211.737 56.4474 184.788L2.39121 130.713L-3.84612 124.473L-8.00419 120.314L-9.41867 121.728L-8.00423 120.314L-10.7764 117.541L-93.2466 35.0414C-95.9049 32.3823 -97.9057 29.718 -99.9912 26.9364C-102.03 24.2175 -103.34 22.2434 -104.654 19.616L-104.709 19.5046L-104.778 19.401C-105.648 18.0959 -106.147 16.9401 -106.638 15.8023C-106.88 15.2428 -107.119 14.6877 -107.4 14.1214C-118.154 -10.8115 -113.412 -41.789 -93.2466 -61.9616L-23.9439 -131.289L-11.4694 -143.768L-12.8838 -145.182L-11.4693 -143.768L-10.0833 -145.154L29.4193 -184.671L58.5264 -213.788C66.5908 -221.855 76.0051 -227.246 86.1301 -230.627C92.9086 -232.659 100.325 -234 107.703 -234C115.802 -234 123.886 -232.649 131.275 -229.961C138.621 -227.289 145.339 -223.274 152.111 -217.866C152.877 -217.113 153.635 -216.544 154.289 -216.053L154.322 -216.029C155.023 -215.502 155.607 -215.061 156.186 -214.481L216.48 -154.167L219.945 -150.7L253.903 -116.73L263.606 -107.024L271.922 -98.705L305.187 -65.428C332.844 -37.7619 332.792 6.02019 305.899 32.2505Z" stroke="#D5D9D8" stroke-width="4" stroke-linecap="round"/>
</svg>
