<svg width="1303" height="2107" viewBox="0 0 1303 2107" fill="none" xmlns="http://www.w3.org/2000/svg">
<g clip-path="url(#clip0)">
<path d="M60.8639 35.8708C86.3394 20.6062 119.484 28.9135 134.749 54.389C140.02 63.186 143.219 73.962 144.257 86.4169C145.08 96.2929 144.554 107.25 142.693 118.982C139.535 138.901 133.705 153.961 133.459 154.592C133.289 155.026 132.984 155.375 132.605 155.602C132.226 155.829 131.774 155.934 131.312 155.879C130.639 155.799 114.609 153.836 95.5559 147.226C84.3326 143.333 74.4229 138.629 66.1027 133.246C55.6096 126.456 47.6163 118.553 42.3452 109.756C27.0806 84.2804 35.3879 51.1356 60.8639 35.8708Z" fill="#FFE571"/>
<path d="M60.8736 35.867C62.5954 34.8353 64.3534 33.9148 66.1374 33.0966C44.5749 49.4743 38.3119 79.8928 52.5447 103.646C57.8158 112.443 65.8091 120.347 76.3022 127.136C84.6225 132.52 94.532 137.224 105.755 141.117C118.013 145.369 129.018 147.698 135.489 148.84C134.355 152.302 133.557 154.363 133.469 154.588C133.299 155.022 132.994 155.372 132.615 155.598C132.236 155.825 131.784 155.93 131.322 155.875C130.648 155.795 114.619 153.832 95.5658 147.223C84.3425 143.329 74.4328 138.625 66.1126 133.242C55.6195 126.452 47.6262 118.549 42.3551 109.752C27.0903 84.2766 35.3976 51.1318 60.8736 35.867Z" fill="#FFC238"/>
<path d="M69.3027 49.9475C87.0172 39.3332 110.065 45.1094 120.679 62.8243C131.294 80.5388 125.517 103.586 107.802 114.201C90.0874 124.815 67.0405 119.039 56.4261 101.324C45.8115 83.6094 51.5878 60.562 69.3027 49.9475Z" fill="#FFC238"/>
<path d="M65.9954 91.4879C64.3729 91.1031 63.1329 89.8543 62.7599 88.2288C62.3869 86.6033 62.9577 84.9389 64.2503 83.885L73.8162 76.0837C73.8822 76.0299 73.9174 75.9471 73.9106 75.8625L72.9074 63.5599C72.7719 61.8976 73.5764 60.3325 75.0066 59.4755C76.4371 58.6184 78.1966 58.6472 79.5986 59.5507L89.9733 66.2377C90.0451 66.2839 90.1348 66.2919 90.2137 66.2592L101.604 61.5034C103.143 60.8607 104.88 61.1424 106.137 62.238C107.395 63.3336 107.911 65.0159 107.485 66.6281L104.331 78.5619C104.31 78.6446 104.33 78.7322 104.385 78.7967L112.428 88.1599C113.515 89.4251 113.784 91.1642 113.13 92.6984C112.477 94.2331 111.036 95.2437 109.371 95.3366L97.0469 96.0249C96.9617 96.0295 96.8844 96.0761 96.8402 96.1487L90.4203 106.691C90.0429 107.311 89.5331 107.811 88.9403 108.166C88.17 108.628 87.26 108.845 86.3217 108.762C84.6605 108.614 83.2537 107.557 82.6506 106.002L78.1875 94.4942C78.1566 94.4145 78.0888 94.3554 78.0057 94.3356L65.9954 91.4879Z" fill="#F75147"/>
</g>
<circle cx="750" cy="936" r="24.5" stroke="#8FD4B8" stroke-width="5"/>
<path d="M435.655 1527.46C434.419 1516.33 421.319 1487.7 435.655 1486.46C453.575 1484.91 485.954 1508.96 490.279 1486.46C494.605 1463.95 481.279 1428.46 522.279 1451.46" stroke="#FEC960" stroke-width="4"/>
<rect x="1277" y="1650.4" width="19" height="19" rx="6" transform="rotate(-29.6591 1277 1650.4)" fill="#8FD4B8"/>
<rect x="371" y="74.4019" width="19" height="19" rx="6" transform="rotate(-29.6591 371 74.4019)" fill="#FFA654"/>
<rect x="330" y="2090.4" width="19" height="19" rx="6" transform="rotate(-29.6591 330 2090.4)" fill="#B9DCF2"/>
<g filter="url(#filter0_d)">
<path d="M1172.27 405.101L1179.36 400.439L1184.88 402.77L1193.55 395L1202.21 399.662L1210.09 398.885L1210.88 405.878L1214.82 403.547L1221.91 399.662L1225.06 404.324L1229.79 405.878L1229 410.54L1225.85 414.424L1229.79 418.309L1227.42 424.525L1232.94 427.633L1236.09 439.288L1242.39 440.065L1241.61 450.166L1250.27 447.835V452.496L1255 456.381L1247.91 464.151L1235.3 462.597L1236.09 476.583H1239.24V486.684L1228.21 487.46L1223.48 492.899L1222.7 503L1217.18 496.784L1210.88 499.892L1206.15 499.115L1204.58 493.676L1199.06 499.892L1191.97 492.122L1186.45 498.338C1186.45 498.338 1179.36 489.014 1173.85 489.014C1168.33 489.014 1148.64 486.683 1146.27 487.46C1143.91 488.237 1131.3 498.338 1131.3 498.338L1130.52 485.13L1125 481.245L1128.94 475.029C1128.94 475.029 1135.24 469.59 1135.24 468.036C1136.03 466.482 1132.09 454.827 1131.3 453.273C1130.52 451.719 1130.52 443.95 1130.52 443.95C1130.52 443.95 1139.18 444.727 1142.33 443.173C1146.27 441.619 1156.52 438.511 1156.52 436.18C1156.52 433.849 1158.88 422.194 1158.88 422.194L1171.49 414.424L1169.12 411.317L1172.27 405.101Z" fill="#F74C47"/>
</g>
<path d="M1191 401C1176.96 401 1165.53 412.598 1165.53 426.854C1165.53 431.776 1166.85 437.003 1169.46 442.387C1171.53 446.657 1174.4 451.038 1178.01 455.41C1184.13 462.833 1190.15 467.595 1190.41 467.795C1190.58 467.931 1190.79 468 1191 468C1191.21 468 1191.42 467.931 1191.59 467.795C1191.85 467.596 1197.87 462.833 1203.99 455.41C1207.6 451.038 1210.47 446.657 1212.54 442.387C1215.15 437.003 1216.47 431.776 1216.47 426.854C1216.47 412.598 1205.04 401 1191 401Z" fill="#FFE571"/>
<path d="M1191 401C1190.05 401 1189.11 401.055 1188.19 401.158C1200.91 402.582 1210.85 413.561 1210.85 426.854C1210.85 431.776 1209.53 437.003 1206.92 442.387C1204.85 446.657 1201.98 451.038 1198.37 455.41C1194.43 460.185 1190.54 463.859 1188.19 465.926C1189.49 467.072 1190.31 467.724 1190.4 467.795C1190.58 467.931 1190.79 468 1191 468C1191.21 468 1191.41 467.931 1191.59 467.795C1191.84 467.596 1197.87 462.833 1203.99 455.41C1207.59 451.038 1210.47 446.657 1212.54 442.387C1215.14 437.003 1216.46 431.776 1216.46 426.854C1216.46 412.598 1205.04 401 1191 401Z" fill="#FFC238"/>
<path d="M1191 408.877C1181.23 408.877 1173.29 416.942 1173.29 426.855C1173.29 436.768 1181.23 444.832 1191 444.832C1200.76 444.832 1208.71 436.768 1208.71 426.855C1208.71 416.942 1200.76 408.877 1191 408.877Z" fill="#FFC238"/>
<path d="M1202.43 425.167C1203 424.608 1203.2 423.788 1202.96 423.027C1202.71 422.265 1202.08 421.721 1201.29 421.606L1195.52 420.754C1195.48 420.748 1195.44 420.722 1195.43 420.686L1192.84 415.373C1192.49 414.655 1191.79 414.209 1191 414.209C1190.21 414.209 1189.5 414.655 1189.16 415.373L1186.57 420.686C1186.55 420.723 1186.52 420.748 1186.48 420.754L1180.7 421.606C1179.92 421.721 1179.29 422.265 1179.04 423.027C1178.8 423.788 1179 424.608 1179.56 425.167L1183.74 429.303C1183.77 429.331 1183.79 429.372 1183.78 429.413L1182.79 435.252C1182.66 436.041 1182.97 436.824 1183.61 437.294C1184.25 437.765 1185.08 437.826 1185.78 437.453L1190.94 434.696C1190.98 434.677 1191.02 434.677 1191.06 434.696L1196.22 437.453C1196.53 437.615 1196.85 437.695 1197.18 437.695C1197.61 437.695 1198.03 437.56 1198.39 437.294C1199.03 436.824 1199.34 436.041 1199.21 435.252L1198.22 429.413C1198.21 429.372 1198.23 429.331 1198.26 429.303L1202.43 425.167Z" fill="#F75147"/>
<defs>
<filter id="filter0_d" x="1125" y="395" width="130" height="115" filterUnits="userSpaceOnUse" color-interpolation-filters="sRGB">
<feFlood flood-opacity="0" result="BackgroundImageFix"/>
<feColorMatrix in="SourceAlpha" type="matrix" values="0 0 0 0 0 0 0 0 0 0 0 0 0 0 0 0 0 0 127 0" result="hardAlpha"/>
<feOffset dy="7"/>
<feComposite in2="hardAlpha" operator="out"/>
<feColorMatrix type="matrix" values="0 0 0 0 0.667611 0 0 0 0 0.171003 0 0 0 0 0.156482 0 0 0 1 0"/>
<feBlend mode="normal" in2="BackgroundImageFix" result="effect1_dropShadow"/>
<feBlend mode="normal" in="SourceGraphic" in2="effect1_dropShadow" result="shape"/>
</filter>
<clipPath id="clip0">
<rect width="139.58" height="139.58" fill="white" transform="matrix(-0.857801 0.513982 0.513982 0.857801 120.73 0)"/>
</clipPath>
</defs>
</svg>
