<svg width="51" height="63" viewBox="0 0 51 63" fill="none" xmlns="http://www.w3.org/2000/svg">
<path d="M21.0819 11.7942C21.8594 13.4816 20.1472 14.8405 18.9024 14.6762C18.0516 14.5769 17.1991 14.7372 16.3165 14.7311C14.24 14.7168 12.181 15.1595 10.096 14.8649C9.28691 14.7451 8.47605 14.8849 7.74782 15.0875C6.50998 15.4113 5.33892 15.0814 4.14561 14.9693C3.74089 14.9354 3.32593 14.8806 2.93324 14.608C2.44767 14.2516 1.92578 13.137 2.10593 12.6087C2.14832 12.4844 2.26346 12.3502 2.37824 12.2679C2.8794 11.8664 3.43283 11.4133 4.06676 11.3346C4.71092 11.2767 5.35544 11.167 5.99961 11.1091C6.81012 11.0212 7.64956 11.2554 8.39969 10.8868C8.67057 10.7536 8.97146 10.7868 9.189 10.861C10.1217 11.127 11.0272 10.8114 11.9094 10.8693C12.7813 10.9065 13.6452 10.6113 14.5157 10.8561C14.8784 10.9624 15.3156 10.7993 15.7207 10.7813C16.053 10.7732 16.3652 10.6715 16.7378 10.8506C16.9447 10.9559 17.3103 10.6469 17.6429 10.5869C18.8073 10.3768 19.8223 10.7576 20.7835 11.3976C20.9389 11.4506 21.0625 11.5968 21.0819 11.7942Z" fill="#B09FF0"/>
<path d="M15.9709 43.875C15.522 44.225 15.1184 44.0353 14.8627 43.4625C14.4743 42.5668 14.7439 41.115 15.5272 40.4455C15.9034 40.1054 16.0828 39.6809 16.4381 39.3511C16.6889 39.1244 16.7648 38.6473 17.2624 38.7649C17.2935 38.7755 17.3772 38.6826 17.3878 38.6516C17.4864 37.9046 18.0543 36.8494 18.6501 36.2721C19.1729 35.7565 19.6338 35.1678 20.1459 34.6833C20.9194 33.941 21.4446 33.062 22.187 32.3092C22.7725 31.711 23.2554 30.9563 23.6347 30.149C23.877 29.6419 24.2962 29.0737 24.7868 28.7032C25.1312 28.4564 24.8673 29.0776 25.1375 29.0483C25.2932 29.0494 25.2368 28.1975 25.5952 28.9268C25.5952 28.9268 25.6262 28.9374 25.6471 28.9272C26.7493 28.696 27.1377 29.5916 27.3199 30.2782C27.5826 31.3391 27.5023 32.4391 26.4481 33.2418C26.0306 33.5504 25.788 34.1095 25.4528 34.5329C25.0968 34.9665 24.5232 35.326 24.3745 35.813C24.0986 36.6729 23.4308 37.1563 22.8664 37.6924C21.8005 38.6819 21.1273 39.944 20.2062 41.0176C20.0073 41.2446 19.8187 41.4925 19.5482 41.5737C19.0591 41.7365 18.755 42.1705 18.6486 42.5332C18.3304 43.5174 17.4355 43.802 16.7157 44.2851C16.3406 44.4694 15.956 44.5291 15.9709 43.875Z" fill="#B09FF0"/>
<path d="M43.4991 52.6717C43.2696 52.8363 43.0736 52.648 42.8257 52.4594C42.4743 52.2182 42.6459 52.9358 42.2624 52.8397C41.7129 52.7218 40.919 51.896 40.9229 51.325C40.9258 50.9096 40.71 50.5759 40.6921 50.1708C40.6681 49.1219 41.2043 48.16 41.0144 47.0892C40.9042 46.4966 41.0017 45.9054 41.1406 45.3456C41.4281 44.2989 41.0514 43.2164 41.1832 42.1686C41.2708 41.5047 41.4103 40.8411 41.5704 40.2192C41.7198 39.6284 41.651 39.0672 41.6549 38.4962C41.6595 37.8213 41.8195 37.1994 42.0936 36.599C42.3147 36.1541 42.8862 36.1061 43.1175 35.6819C43.3954 36.0369 43.5639 35.6954 43.762 35.5722C43.7829 35.5619 43.8867 35.5626 43.8867 35.5626C44.0495 36.0518 44.8494 35.995 44.855 36.6907C44.8715 37.3034 45.231 37.877 45.154 38.5098C45.0649 39.3814 45.2665 40.2654 45.188 41.1059C45.1432 41.5936 45.2014 42.1859 44.9693 42.7138C44.7475 43.2626 45.1893 43.951 45.0504 44.5107C44.8367 45.3918 44.9966 46.2963 44.7621 47.1876C44.6872 47.509 44.8196 47.8837 44.8068 48.2263C44.781 48.9633 44.7863 49.7109 44.6566 50.4473C44.5368 51.2563 44.4785 52.1904 43.4991 52.6717Z" fill="#B09FF0"/>
</svg>
