<svg width="32" height="31" viewBox="0 0 32 31" fill="none" xmlns="http://www.w3.org/2000/svg">
<path d="M19.2096 0.847353C19.4754 0.8248 19.7353 1.04869 20.0913 0.827183C20.4207 0.607933 21.827 1.08987 21.9458 1.54437C22.1606 2.18204 22.878 2.74972 22.3866 3.58394C22.197 3.87332 22.3979 4.34819 22.1309 4.67146C21.9852 4.8478 21.8973 5.07387 21.6384 5.17782C20.7554 5.4987 20.1981 6.50248 19.128 6.51129C19.1014 6.51355 19.0528 6.57234 19.0286 6.60173C18.5775 7.5965 17.4543 7.60983 16.7584 8.24278C15.9874 8.93676 14.9137 9.21915 14.3853 10.2478C14.2268 10.5892 13.7264 10.6863 13.3947 10.8784C12.1984 11.6085 11.2713 12.671 10.1928 13.5277C9.66684 13.9549 8.9965 14.2578 8.68194 14.9677C8.61601 15.1372 8.44146 15.2887 8.26001 15.3587C7.30648 15.7949 6.6579 16.6698 5.73096 17.1037C4.93231 17.4721 4.13597 17.8676 3.30384 18.1569C2.78376 18.3376 2.31118 18.1318 2.25362 17.4534C2.2329 17.2092 2.06421 17.1142 1.91394 17.2363C1.66426 17.4488 1.4782 17.4646 1.45057 17.139C1.42295 16.8134 0.91229 16.4741 1.39198 16.1328C1.54455 16.0379 1.70402 16.0243 1.5481 15.7643C1.18079 15.2215 1.57846 14.8598 1.92985 14.5841C2.13098 14.4304 2.32749 14.2224 2.53322 14.1229C4.0288 13.4495 4.58865 11.8442 5.81508 10.8383C6.46702 10.3184 7.08088 9.66511 7.61959 9.07283C8.10974 8.53933 8.88411 8.20035 9.21604 7.37966C9.41612 6.89809 10.2413 6.52746 10.7985 6.15224C11.433 5.74313 12.0341 5.25486 12.5486 4.69197C12.9173 4.3054 13.3819 4.102 13.8131 3.81946C14.3459 3.47363 14.9365 3.17758 15.4937 2.80236C16.6588 2.02029 17.795 1.21334 19.2096 0.847353Z" fill="#FFA654"/>
<path d="M22.0573 27.4701C21.4345 27.3863 20.5573 27.4607 19.9008 27.9264C19.2443 28.392 18.44 28.3783 17.7834 28.8439C17.4031 29.0948 16.8831 29.2755 16.4 29.2619C15.2745 29.2481 14.1765 29.5599 13.0694 29.7631C12.042 29.9596 11.0135 29.8282 9.99431 29.8054C9.40495 29.8007 9.04224 29.3123 8.69105 28.9595C8.42651 28.6813 8.69022 28.003 8.84049 27.881C10.0692 26.9022 11.1755 25.7425 12.7404 25.2545C13.5482 24.9946 14.3042 24.4386 15.0878 24.2081C15.8956 23.9483 16.6135 23.2588 17.449 23.3246C18.1492 23.3745 18.5042 22.8251 19.0844 22.7212C19.6911 22.6151 20.2909 22.4275 20.9081 22.1292C22.1668 21.5032 23.5433 21.0038 24.9474 20.83C25.6096 20.7465 26.169 20.3984 26.785 20.4008C27.7487 20.401 28.7045 19.9919 29.6717 20.3471C30.2795 20.5689 30.6641 21.0008 30.8188 21.5616C30.94 22.0432 31.4136 22.5769 30.7882 23.0946C30.5628 23.2777 31.0203 23.6215 30.8041 23.9131C30.4666 24.3517 30.1313 24.8174 29.6332 24.9416C28.4266 25.2353 27.2628 25.7166 26.0204 25.904C25.3074 26.0192 24.5642 26.4102 23.9585 26.8442C23.4545 27.2149 22.9056 27.3708 22.0573 27.4701Z" fill="#FFA654"/>
</svg>
